<?xml version="1.0" encoding="utf-8"?>
<!-- Generator: Adobe Illustrator 25.0.0, SVG Export Plug-In . SVG Version: 6.00 Build 0)  -->
<svg version="1.1" id="Layer_1" xmlns="http://www.w3.org/2000/svg" xmlns:xlink="http://www.w3.org/1999/xlink" x="0px" y="0px"
	 viewBox="0 0 1862.3 1862.3" style="enable-background:new 0 0 1862.3 1862.3;" xml:space="preserve">
<style type="text/css">
	.st0{fill:#FFFFFF;stroke:#D9ECFD;stroke-width:113.326;stroke-miterlimit:10;}
	.st1{fill:#FEF1F4;stroke:#ACC7E2;stroke-width:2;stroke-miterlimit:10;}
	.st2{fill:#D9ECFD;stroke:#FEF1F4;stroke-miterlimit:10;}
	.st3{fill:#ACC7E2;stroke:#FDE1FF;stroke-miterlimit:10;}
	.st4{fill:#D9ECFD;stroke:#FEF1F4;stroke-width:2;stroke-miterlimit:10;}
	.st5{fill:#FEFEFE;}
	.st6{fill:#BFE6ED;}
	.st7{fill:#CFEFF5;}
	.st8{fill:#E6F5F7;}
	.st9{fill:#C42D2C;}
	.st10{fill:#D3F5FA;}
	.st11{fill:#D6F7FB;}
	.st12{fill:#D3F6FB;}
	.st13{fill:#D4F7FB;}
	.st14{fill:#CFF3F9;}
	.st15{fill:#D9F8FC;}
	.st16{fill:#D0F5FB;}
	.st17{fill:#D5F7FC;}
	.st18{fill:#D6F6FC;}
	.st19{fill:#D0F4FA;}
	.st20{fill:#E4494A;}
	.st21{fill:#E64B4C;}
	.st22{fill:#CBEFF4;}
	.st23{fill:#E0F7FA;}
	.st24{fill:#D5F5F9;}
	.st25{fill:#EFFCFD;}
	.st26{fill:#CFF2F6;}
	.st27{fill:#DAF2F6;}
	.st28{fill:#D5F2F5;}
	.st29{fill:#C0F3FA;}
	.st30{fill:#D8F7FC;}
	.st31{fill:#D3F5FB;}
	.st32{fill:#FEFDFD;}
	.st33{fill:#D7F6F9;}
	.st34{fill:#D3F5F8;}
	.st35{fill:#CAF2F8;}
	.st36{fill:#D0F2F4;}
	.st37{fill:#DCF1F4;}
	.st38{fill:#D9F0F2;}
	.st39{fill:#D9F4F7;}
	.st40{fill:#DEF0F3;}
	.st41{fill:#E2EDF0;}
	.st42{fill:#E1EFF0;}
	.st43{fill:#DFF2F4;}
	.st44{fill:#BE1615;}
	.st45{fill:#F9F7F7;}
	.st46{fill:#E3EDEF;}
	.st47{fill:#D3F2F6;}
	.st48{fill:#D6F0F3;}
	.st49{fill:#D9ECEF;}
	.st50{fill:#F8FCFC;}
	.st51{fill:#DAEEF1;}
	.st52{fill:#F0F8F8;}
	.st53{fill:#E9F7F8;}
	.st54{fill:#E0E7E9;}
</style>
<g>
	<circle class="st0" cx="917.9" cy="910.1" r="874.5"/>
	<path class="st1" d="M472.9,1384.3c4,2.6,7.9,2,10.6-2c7.5-11.3,18.6-17.7,30.7-23c8.6-3.8,16.2-9.4,22.5-16.4
		c26.5-29.8,61-47.8,95.7-65.6c22.7-11.7,45.4-23.3,68.2-34.8c21-10.6,36.8-26.2,46.8-47.6c2.5-5.5,5.3-11,8.4-16.2
		c4.4-7.2,6.4-7.8,13.7-3.8c8.5,4.7,16.8,9.7,25.2,14.7c28.5,16.9,59.1,28.5,91,36.8c7.1,1.9,14.3,2.9,21.6,3
		c15.6,0,24.3-6.9,26.9-22.3c2.7-15.8,0.6-31.6-0.7-47.3c-1.7-21.1-7.6-41.4-11.2-62.2c-0.8-4.8-2-9.5-2.3-14.4
		c-0.3-4.1,1.9-6.1,6.2-4.1c0.7,0.4,1.4,0.8,2.1,1.3c3.8,2.5,8,5.1,12.4,2.3c5.4-3.4,4.3-9.1,3.6-14.4
		c-5.1-38.9-19.2-74.4-40.2-107.3c-2.2-3.4-4.1-7.1-6.8-10c-6.2-6.7-4.5-12.9-0.2-19.7c9.5-14.7,22.5-25.5,37-34.6
		c20.9-13.1,42.2-25.8,65.7-34.1c4.2-1.5,8.3-3.3,12.2-5.4c13.5-7.3,23.2-17.5,25-33.6c0.5-4.7,0.3-11.2,5.3-12.7
		c5.1-1.6,7.8,4.7,11.1,7.9c13.5,12.9,26.4,26.3,41.2,37.8c3.8,3,7.7,5.9,11.8,8.6c11.8,7.8,23.5,7.6,35.1-0.6
		c8.9-6.4,16.8-14,24.8-21.5c25.4-23.9,50.8-47.8,76.2-71.6c3.5-3.3,7.3-6.5,11-9.6c8.5-7.1,8.8-7.1,17.4-0.1
		c4.4,3.6,8.6,7.4,12.7,11.3c5.6,5.3,12,9.7,19,13c10.6,5,21,5.8,30.5-3c1.8-1.6,3.8-3,5.9-4.3c4.6-3,9-3,13.3,0.8
		c24.4,22.1,52.7,38.9,79.6,57.2c16.8,11.4,32.7,24,50.6,33.7c2.7,1.5,4.7,4.3,7.1,6.6c1.6,1.8,3.4,3.4,5.3,4.8
		c1.7,1.1,4,1.5,5.6-0.2c1.9-2.1,0.2-3.7-1.3-5.1c-1.5-1.4-3.1-2.6-4.7-3.8c-25.9-18.9-51.7-37.7-77.7-56.5
		c-6.3-4.5-11.7-10.2-17.9-14.6c-11.2-8-22-15.6-28.2-28.7c-2.7-5.7-9-9.2-14.5-12.7c-11.2-7.3-22.7-14.2-34-21.4
		s-23.7-8.8-36.9-10.5c-22.8-2.9-40.3,5.1-57.9,18.8c-28.8,22.5-58.7,43.4-89.7,62.6c-20.5,12.6-17.6,10-29-6.3
		c-18.4-26.3-39.8-50.2-59.5-75.4c-7.7-9.9-15.6-19.8-23.8-29.3c-4.3-5-5.3-9.9-2-15.4s6.2-11.4,9.8-16.8c5.5-8,7.1-8.3,15.9-3.2
		c9.5,5.5,18.6,11.5,28.1,17c7.4,4.3,15.3,7.5,24.1,7.8c9.7,0.4,13.9-1.9,15.7-11.4c2.6-13.4,13.5-22,18-34.2
		c1.2-3.3,5.3-3.2,8.3-4.4c8.1-3.4,9.7-8.5,5.5-16.5c-0.7-1.4-1.6-2.8-2.7-4.1c-6.4-7.5-6.2-15.5-1.9-23.8s8.6-16.5,13.1-25.2
		c4,0.5,3.8,6.7,8.2,5.7c4.3-1,6.9-4.1,9.2-7.4c11.1-16,8.8-40-5.7-53.4c-10.8-9.8-21.3-19.7-30.7-31c-10.1-12.2-24.4-18.7-38.9-24
		c-19.1-7-38.8-11.9-59.3-12.2c-7.3-0.1-12.8-2.5-18.4-7.5c-22.2-20.1-44.1-17.8-62.5,5.8c-11.4,14.6-13.4,30.9-1.7,46
		c9.9,12.9,12,24.4,6.9,39.7c-5.6,17.1-2.5,34.5,5,50.9c2.8,6.3,5.5,12.6,7.8,19.1c9.8,26.5-17.8,52.6-38.2,54.7
		c-5.5,0.6-6.9-2.8-8.6-6.6c-10.3-22-21.8-43.4-34-64.5c-35.9-62.4-77.9-120.5-124-175.6c-39.9-47.6-81.8-93.3-128.7-134.1
		c-23.9-20.8-48.7-40.4-76.6-55.6c-5.3-2.9-10.8-5.6-16.4-7.9c-16.6-6.7-18.6-5.7-23.2,12.1c-1.8,7-2.9,14.3-4.1,21.5
		c-0.4,2.8-0.5,5.6-2.8,8.6c-5.7-1.7-11.4-3.6-17.2-5c-10.9-2.6-12.8-1.4-15.3,9.3c-2,9.1-3.2,18.4-3.6,27.7
		c-2.1,41.3,6.3,80.7,22.5,118.4c38.2,88.6,101.3,154.4,186.3,199.6c37,19.5,75.7,35.3,115.8,47.3c1.5,0.4,3.2,0.5,4.6,2.8
		c-5.1-0.2-9.8-0.3-14.4-0.6c-45.3-2.7-90.7-2.4-136,0.7c-22.7,1.6-45.3,3.8-67.7,7.2c-21.2,3.3-42.3,7.8-62.4,15.7
		c-18.3,7.2-19,10.8-4.9,24.7c4,4,8.2,7.6,12.8,11.7c-4,5.3-10.2,5.6-14.9,8.4c-7.1,4.4-8,7-2.5,13.4c13.4,15.6,30.1,27,48.6,35.9
		c35,16.8,72.2,23.5,110.8,24.4c16.5,0.4,32.9-1.6,49.3-2.4c0.2,0.8,0.5,1.4,0.4,1.5c-16.7,21.9-33.5,43.7-50.3,65.6
		c-4.9,6.6-12.5,10.7-20.8,11.1c-9.3,0.6-18.6,1.1-27.9,1.9c-22.9,2.1-40.2,14-53.3,32.1c-5,6.9-2.7,10.4,5.8,10.4
		c10.4,0.1,19-3.5,24.4-13c2-3.5,3.7-7.4,8.4-8.1c2.5-0.4,4.9,0.1,6.5,2.4c1.4,2.1,0.2,3.9-1.2,5.4c-3,3.4-6,6.6-8.8,10
		c-1.5,1.8-3.5,3.7-2,6.4c1.3,2.3,3.8,2.9,6.3,3.1c3.7,0.3,7.3-1,10-3.5c9-7.7,19.5-11.2,31.1-12.5c9.5-1.1,17.8-5.3,25.2-11.3
		c35.1-28.8,72-55.3,104-87.8c8.7-8.6,19-15.4,30.3-20c16.8-7.1,33.1-15.3,50.3-21.5c2.2-0.8,4.3-2.1,6.8-1.7c2.7,2.9,0.5,5.5-0.4,8
		c-3.4,9.1-7,18.2-10.5,27.3c-5.1,13.3-13.9,23.5-25.5,31.7c-13.3,9.5-28.2,16.2-43.5,21.6c-35.1,12.3-53.9,37.1-60.1,72.8
		c-2.9,16.8-5.8,33.5-8.1,50.4c-1.8,13-7,23.8-17,32.5c-7.5,6.8-14.6,14-21.2,21.7c-4.8,5.4-3.4,9.2,3.4,11.6
		c5.5,2,10.4-0.5,15.4-1.6c9.4-2,11.3-0.1,8,9.1c-3.7,9.9-5.1,20.5-4.2,31c0.9,10.4-1.6,13.3-11.9,14.1c-9.3,0.8-16,5.2-21.7,11.9
		c-3.4,4-6.6,8.2-9.7,12.4c-4.4,6.4-10.7,11.3-17.9,14c-10,3.7-19,8.8-25.8,17.4c-4.4,5.4-10.6,9.1-17.4,10.4
		c-2.8,0.6-5.4,1.6-8,2.9c-5,2.5-6.8,6.9-5.5,12.2c1.5,6,6.5,5.7,10.8,4.7c21-4.9,42.5-6.4,63.6-10.2c5.1-0.9,10-3.3,14.9-5.1
		c2.3-0.8,4.8-2,6.7,0.2c1.7,1.9,1.5,4.5,0.9,6.9c-1.3,5.1-4.7,8.3-9.1,10.8c-31.1,17.6-59.4,39.6-84.2,65.4
		c-5.3,5.5-11.3,10.5-16.9,15.7c-7.4,7-16.2,8.7-25.9,7c-4-0.6-8-1.6-12-2.2c-11.5-1.8-17.1,0.9-23.1,11c-4.2,7.2-6,15.2-6.3,23.3
		c-0.6,13.2-6.1,23.3-17.1,30.4c-5,3.2-8.2,7.6-10.7,12.9c-4.9,10.2-10.1,20.3-15,30.6C471.2,1378.5,469.1,1381.9,472.9,1384.3z
		 M852.5,703.9c-20.3,18.7-33.6,13.1-55.3-4.8C816,699.2,833.3,701,852.5,703.9z M811.7,718.1c-18.5,0.1-35.7,2.2-52.9,3.4
		c-2.3,0.2-4.8-0.8-7.1-1.5c-19.4-5.6-38.8-11.1-58.2-16.9c-2.5-0.7-5.8-0.5-7.1-3.7c2-2,4.5-1.5,6.8-1.5
		c25.4-0.4,50.8-1.5,76.3-0.6C783,697.8,800.3,705.8,811.7,718.1L811.7,718.1z M781.9,684c0.1,1,0.1,1.9,0.2,2.9
		c-16.3,9.1-34.2,1.9-51,3c8.4-1.1,16.8-2.3,25.2-3.3C764.8,685.6,773.3,684.9,781.9,684L781.9,684z M654.8,760.9
		c-3.9,2.6-8.3,3.1-12.8,3c-14.4-0.1-28.2-2.7-41-9.6c-3.8-2-10.3-3.2-9.8-7.8c0.6-5.9,7.5-5,12-5.4c20.9-2.1,41.9-4.2,62.9-5.2
		c12.4-0.6,24.6-2.5,37.2-2.4C686.4,741.4,670.1,750.5,654.8,760.9z M675.9,755.5c33.8-23.7,71.9-30.5,113.3-30.2
		c-15.2,7.1-29.2,13.6-41.5,22.8C725.2,764.9,700.8,761.2,675.9,755.5L675.9,755.5z M646.9,732c-33.1,5.2-64.9,1.1-95.7-13
		c16.9-6.2,33.8-10.8,51.6-12c3.3-0.2,6.3,1.3,9.1,2.8c9.9,5.4,19.9,10.7,29.7,16.3C643.8,727.2,647.3,727.6,646.9,732L646.9,732z
		 M660.9,730.4c-14.5-7.6-29-15.3-43.4-23c0.2-0.9,0.3-1.8,0.5-2.6c9.4-1.2,18.9-2.2,28.3-3.8c10.4-1.7,21.1-0.9,31.1,2.4
		c16.2,5.1,32.6,9.4,48.9,14.3c2.9,0.8,6.4,0.8,8.3,3.9c-0.6,2.1-2.4,2.1-3.9,2.3c-20.1,2.4-40.2,4.8-60.2,7.2
		C667.2,731.4,663.9,731.9,660.9,730.4L660.9,730.4z M854.9,678.9c-19,22.4-41.7,14.2-63.6,11.8
		C810.8,678.2,832.8,680.6,854.9,678.9L854.9,678.9z M791.9,744.3c-9.4,6.2-18.9,4.9-29.2,1.9c14.1-12.6,47.1-24.7,61.4-22.3
		C812.9,730.9,802.3,737.4,791.9,744.3L791.9,744.3z M714.5,786.5c-1.3-2.8-0.3-4.1,0.7-5.4c10.3-11.5,22.9-20.2,35.3-29.2
		c2.3-1.7,4.8-2.6,7.9-1.8c4.9,1.4,9.9,2.6,15.8,4c-8.1,7.1-16.4,13-22.9,20.5C740.9,786.6,727.5,785.6,714.5,786.5L714.5,786.5z
		 M652.8,786.6c-5.4-0.4-11.2-0.7-17.7-4.3c9.4-9.3,19.4-15.9,29.8-21.7c2.6-1.5,5.6-0.3,8.3,0.5c14.2,4,28.7,4.7,43.3,4.2
		c1.8-0.1,4.1-0.9,5,2.3c-5.4,5.7-11.1,11.5-16.6,17.3c-3.1,3.3-6.9,3.9-11.1,3.7C680.3,788,666.5,787.5,652.8,786.6L652.8,786.6z
		 M567.2,760.5c-1.8-1-3-2.7-1.4-5c3.6-4.9,15.8-7.9,20.9-4.3c15.6,11,33.1,16.5,53.7,17.8c-7.5,10.9-15.3,14.1-26.2,10.4
		c-10.4-3.5-20.9-6.4-30.9-10.8C577.8,766.2,572.5,763.3,567.2,760.5L567.2,760.5z M534.5,723.7c3.1-1.2,6.3-2.1,9.4-0.9
		c14.8,6.3,30.3,10.1,47.3,14.8c-10.6,5-19.7,9.2-28.7,13.6c-4,2-7.7,2-11.4-0.6c-6.9-5-13.8-10-19.4-16.4
		C527.1,728.8,527.8,726.2,534.5,723.7L534.5,723.7z M533.4,682.5c3-1.2,6.4-1.1,9.4,0.1c15.5,6.1,31.5,10.9,47.8,14.2
		c-6.6,2.9-11.3,5-16.1,7c-24.6,10.3-26.4,7.3-44.3-9.7C524.1,688.3,525.3,685.3,533.4,682.5L533.4,682.5z M604.5,666.8
		c14.5,7.6,28.9,15.4,43.4,23.1c-34.5,5.3-67.7,4.2-101.3-11.9c18.3-5.8,35.1-9.1,52-11.9C600.6,665.7,602.7,666,604.5,666.8
		L604.5,666.8z M647.2,660.1c11.7-0.8,23.4,0.7,34.4,4.4c15.7,5.2,31.8,9.2,47.6,13.9c2.5,0.7,5.7,0.4,7.2,3.5
		c-2.2,2.4-5.2,1.8-7.8,2c-15.3,1.5-30.7,1.9-45.7,4.4c-16,2.7-30.1,1-43.5-8.7c-7.7-5.5-16.9-8.5-26.8-15.9
		C625.8,661.9,636.4,660.8,647.2,660.1L647.2,660.1z M772.3,657.1c4,0.2,8.1,0.3,11.7,2.4c7.9,4.7,15.9,9.4,23.8,14.2l-0.6,3.1
		c-23.8,1.7-47.4,7.3-71.4-1.2c-15.2-5.4-31-9.2-46.5-13.8c-2.8-0.8-6-0.7-9-3.9c8-0.3,14.8-0.8,21.6-0.9
		C725.5,656.5,748.9,655.7,772.3,657.1L772.3,657.1z M888.8,670.6c-20.7,1.7-41.4,3.7-62.2,4.8c-9,0.5-21.3-7.1-29.3-16.7
		C829,659.3,858.9,663.9,888.8,670.6L888.8,670.6z M623.9,550.2c-4.3-3.5-8.8-6.9-12.2-12.6c2.1-0.9,2.8-1.5,3.6-1.5
		c31.1-3.7,62.1-1.6,93,2.2c4.8,0.6,8,2.7,9.6,7.8c2.4,7.9,7.5,14.2,12.4,20.7c12.6,16.7,29.2,29,46.2,40.8c2,1.4,5.7,1.6,5,5.6
		c-4.4,1.8-8.8,1.3-13.2,1.2c-8.9-0.1-17.8-0.8-26.7-0.1c-7.3,0.6-14.5-0.8-21-4.1C686.2,593.6,653.5,574.4,623.9,550.2L623.9,550.2
		z M689.9,471.3c-31.7-14.2-64.8-23-99.3-27.3c-5.2-0.7-10.1-3.2-13.7-7c-8.4-8.3-16.2-17.1-22.1-27.3
		c-10.1-17.6-16.1-37.4-17.3-57.7c-0.5-7.6,1.7-8.8,8.6-5.7c8.9,3.9,17.1,9.3,24.3,16c36.2,33.7,73.5,66.1,112,97.2
		c4.3,3.4,8.7,6.8,12.4,12.5C692.1,471.6,690.9,471.7,689.9,471.3L689.9,471.3z M617.9,460.8c-1.3-4,0.7-6.2,5-5.9
		c1.6,0.2,3.2,0.4,4.8,0.8c42.6,10,82.6,25.7,116,55.1c7,6.1,14.1,12.1,21.1,18.3c9,7.9,17.9,15.9,28,24.8c-4.9,1.7-7.1,0.4-9.3-0.4
		c-30.1-11.2-60.7-19.9-92.9-22.5c-7.5-0.6-13.9-4-20-8.2c-19.3-13.5-35.5-31-47.6-51.2C620.9,468.3,619.2,464.6,617.9,460.8
		L617.9,460.8z M621.9,343.6c-1.3-6.9-3.2-13.9-2.5-21.8c4.8,1.5,7.4,4.1,10.1,6.4c15.2,12.8,30.3,25.7,45.6,38.3
		c5.3,4.4,9.5,10,12.2,16.3c13.1,28.7,26.5,57.3,39.8,86c4.7,10.2,9.3,20.5,13.9,30.8l-1.9,1.2c-32-26.7-64.1-53.3-96.2-79.9
		c-4.9-4.1-7.4-9.1-8.6-15.4C630.4,384.8,625.9,364.2,621.9,343.6L621.9,343.6z M694,386c1.7,0.2,2.2,0.2,2.5,0.4
		c39.5,35.9,76.9,74.2,111.8,114.5c3.4,4,5.6,9,6.1,14.2c2,15.2,4.3,30.4,6.3,45.7c0.4,2.6,1.7,5.5-0.7,8.1c-4.3,0.6-6.4-2.9-9-5.1
		c-17.1-14.8-34-29.9-51.1-44.7c-5.5-4.8-9.9-10.7-12.8-17.4c-11.5-25.4-23.4-50.7-35-76C706.1,412.7,700.2,399.6,694,386L694,386z
		 M827.5,584.3c6.2,5.8,13,11,19,17c7.9,7.9,17.8,13.8,25.7,24.5c-3.5,0.1-4.7,0.5-5.8,0.2c-20.8-5.3-41.8-9.7-63.3-11.1
		c-4.5-0.3-8.6-2.3-12.5-4.5c-12-6.8-23.5-14.2-34-23.3c-11.1-9.6-21.2-20-29.1-32.4c-2.1-3.3-5.6-7.1-2.6-11
		c2.6-3.5,6.9-0.8,10.2,0c19.7,4.7,38.7,11.7,57.6,18.9C805.7,567.4,817.5,574.8,827.5,584.3L827.5,584.3z M539.3,452.3
		c-1.3-2.2-4-4.3-1.7-8.1c21.3,0.7,42.5,2.8,63.5,6.4c6,1,8.8,4.4,11,9.8c7,17.5,18.1,32.3,31.2,45.8c7.9,8,16.9,14.7,28,23.5
		c-19.4-0.8-38.8-0.3-58.2,1.7c-6.3,0.6-10.8-0.6-15.1-5C576.1,503.4,555.6,479.4,539.3,452.3L539.3,452.3z M503.4,375.6
		c-3.6-11.6-7-23.3-8.2-35.5c-0.9-8.8,0.8-10.2,9.6-7.9c5.5,1.4,10.9,3.1,16.3,4.8c10.2,3.3,10.6,4.3,11.2,14.5
		c1.5,28.4,10.9,53.8,28.8,75.9c2.8,3.4,6.6,6,8.2,12.4c-9.2,2-17.6-1.2-25.9-0.5c-9.7,0.8-14.9-3.9-18.9-12
		C516.5,410.5,508.9,393.5,503.4,375.6L503.4,375.6z M526.9,276.2c8.2,25.5,20.4,49.2,34.4,72.1c-14-7.5-28.9-13.4-44.3-17.5
		c-5.8-1.6-11.6-3.6-17.4-5.3c-4.4-1.3-6.7-4.1-7.4-8.6c-2.6-19.3-2-38.9,1.7-58c0.8-4.2,3.2-5.9,7.8-5.4c13.4,1.5,20,6.6,23.9,19.3
		C526.1,274,526.6,275.1,526.9,276.2L526.9,276.2z M530.9,270.7c-0.7-4,1.6-5.1,5.1-3.8c1.9,0.7,3.7,1.6,5.5,2.6
		c21.8,11.7,42.6,25,62.4,39.9c5.6,4.2,8.2,9.4,9.5,16.1c3.7,19.5,8,38.8,11.8,58.3c1.4,7,3,14,2.8,21.1c-1.5,0.2-2.1,0.4-2.3,0.3
		c-4.6-3.8-9.3-7.7-13.9-11.6c-36.2-30.4-62.6-67.5-77.9-112.4C532.6,277.7,531.6,274.2,530.9,270.7L530.9,270.7z M564.2,230.4
		c3.5,12.4,6,25.1,10.6,37.2c2,5.2,3.5,10.5,6.1,18.1c-17.3-10.4-32.4-19.4-48.2-27.2c-2.6-1.3-4.2-4.1-3.8-7.1
		c1-11.3,2.7-22.4,6.4-33.2c0.8-2.4,2-4.4,4.9-4.6C548.5,213,561.9,222.3,564.2,230.4L564.2,230.4z M644.1,282.4
		c1.8,1.7,2.9,4,3.2,6.4c1.7,13.6,3.5,27.3,5.1,40.9c0.3,2.3,0.6,5.1-2.2,6.3c-2.2,0.9-3.8-1-5.3-2.3c-10.1-8.1-19.2-17.9-30.5-23.9
		c-21.9-11.7-32.6-30.4-38.2-53.2c-0.5-1.5-0.9-3.1-1.2-4.7c-1.1-7.4-5.8-14.2-3.9-24.7C597.3,243,621.8,261.5,644.1,282.4
		L644.1,282.4z M697.8,333.2c11,10.1,18.7,21.9,22.8,36.4c3.2,11.3,7.8,22.1,11.7,33.1c0.9,2.5,2.7,5,1.2,7.9
		c-0.8-0.1-1.9,0.1-2.3-0.4c-22.7-20.7-45.4-41.3-68.1-62c-2.5-2.2-4.4-4.7-5-8c-2.7-15.4-2.2-30.9-4.1-49.2
		c6.1,5.4,10.1,8.6,13.8,12.2C677.7,313.3,687.4,323.6,697.8,333.2L697.8,333.2z M831,515.5c-2.7,0.5-3.6-1-4.5-2.2
		c-23.5-28.5-48.6-55.5-74.5-81.7c-4.5-4.6-8-10.2-10.1-16.4c-5.1-14.1-10.2-28.2-15.2-42.3c-0.9-2.4-2.5-4.9-0.5-7.7
		c3.9,1.8,6,4.8,8.4,7.5C766,408.1,795.8,445,824.2,483C832,493.5,832.7,504,831,515.5z M917.2,636c-21.9-34-45.7-66.8-71.2-98.3
		c-8.2-10-8.7-20.8-7.9-32.7C868.6,546.1,895.1,590,917.2,636L917.2,636z M920.1,659.3c-28.9-25.4-57.9-50.7-86.8-76.1
		c-2.5-2.2-4.5-4.7-4.9-8.1c-2.4-18.4-4.8-36.8-7.2-55.2l2.3-1.1c36.5,44.1,70.8,89.8,99.4,140.7
		C920.9,659.4,920.3,659.5,920.1,659.3L920.1,659.3z M747,621.6l0.8-2.4c6,0,12.1,0.1,18.1,0c33.8-0.5,67,2.5,99.9,11.3
		c14.2,3.8,26.5,9.4,36.6,20c4.6,4.8,10.9,8.1,15,17.1C858.8,659.9,801.5,644.4,747,621.6z M872.6,692.1c-9.5,6.3-19.3,7-32.2,2.7
		c18.5-10.4,33.6-23.3,56.4-17.6C888,682.5,880.1,687,872.6,692.1L872.6,692.1z M788.2,1130.1c-4.7-1.7-6.1-4.9-4.2-9.6
		c4.1-10,7.5-20.4,14.3-30.1c5.8,3.8,8.1,8.6,11.4,12.6c3.7,4.5,7.1,5.3,12.5,2.5c9.5-4.9,10.7-4.1,14.1,6.7
		c3.1,9.7,6.4,19.1,12.1,27.7c2.3,3.5,7.1,7.9,3.6,11.8c-3.9,4.3-9.1,0-13-2.2c-13.1-7.5-27.1-12.6-41.6-16.2
		C794.2,1132.3,791.2,1131.3,788.2,1130.1L788.2,1130.1z"/>
	<g>
		<path class="st2" d="M1413.3,1112.5c-0.8,2.3-2,4.4-3.5,6.3c-1.5,1.8-3.1,3.5-5,4.8c-1.7,1.2-3.4,2.3-5.3,3.1
			c1.2-3.2,2.3-6.4,3.2-9.5c1-3.1,1.7-5.8,2.3-8.1c0.5-1.6,0.7-3.3,0.8-5c-0.5-0.1-1-0.2-1.4-0.3c-0.4,0-0.7-0.1-1.1-0.1
			c-1.3-0.1-2.5,0.6-3.3,1.6c-1,1.5-1.7,3.2-2,5c-0.1,0.3-0.1,0.7-0.2,1.1s-0.2,0.8-0.3,1.2c-1.9,2.7-4.1,5.2-6.5,7.5
			c-2.3,2.1-4.2,3.1-5.8,3.1c-0.7,0-1.4-0.3-1.9-0.9c-0.6-0.7-0.8-1.7-0.8-2.6c0.1-2,0.5-3.9,1.4-5.7c1-2.2,2.2-4.2,3.7-6.1
			c1.5-1.9,3.3-3.5,5.4-4.8c1.9-1.2,4.1-1.9,6.4-1.9c0.7,0,1.4,0.1,2.1,0.3c0.7,0.3,1.3,0.7,1.7,1.2c0.3-0.2,0.5-0.4,0.8-0.7
			c0.4-0.4,0.6-1,0.6-1.6c0-0.9-0.6-1.8-1.4-2.2c-1.2-0.7-2.6-1.1-4.1-1c-2.7,0-5.4,0.6-7.8,1.7c-2.8,1.2-5.4,2.8-7.6,4.8
			c-2.3,2-4.3,4.4-5.8,7.1c-1.3,2.2-2,4.7-2.2,7.2c-1.2,1.8-2.6,3.5-4.2,5c-1.1,1.1-2.6,1.8-4.2,1.9c-0.5,0-1-0.2-1.4-0.6
			c-0.5-0.5-0.7-1.2-0.6-1.9c0-1.3,0.3-2.6,0.8-3.8c0.5-1.3,1.1-2.7,1.7-4.2c0.6-1.5,0.9-3.1,0.8-4.8c0-2-0.6-3.9-1.7-5.4
			c-1.3-1.7-3.3-2.6-5.4-2.5c-2,0-4,0.6-5.7,1.7c-2,1.2-3.8,2.6-5.5,4.3c-1.7,1.7-3.4,3.6-4.8,5.6c0.4-1.7,0.8-3.2,1.1-4.5
			c0.2-1,0.3-2,0.4-3c0-1.7-1-2.5-3-2.5c-0.9,0-1.8,0.2-2.6,0.7c-0.7,0.4-1.3,0.8-1.8,1.4c0,2-0.3,4.1-0.8,6c-0.3,1.2-0.7,2.4-1,3.5
			l0,0c-1.4,2.7-3.3,5.2-5.5,7.2c-2.3,1.9-4.4,2.9-6.3,2.9c-1,0.1-2-0.2-2.8-0.9c-0.7-0.6-1-1.8-1-3.6c0-2,0.5-4,1.3-5.9
			c0.9-2.1,1.9-4.1,3.1-6c1.2-1.9,2.2-3.6,3.1-5.1c0.7-1,1.2-2.1,1.3-3.3c0-0.7-0.2-1.4-0.8-1.8c-0.5-0.4-1.1-0.6-1.8-0.6
			c-1.4,0.1-2.8,0.7-3.7,1.8c-1.4,1.4-2.6,3-3.5,4.7c-1.1,2-2.1,4-2.8,6.2c-0.6,1.6-1.1,3.2-1.6,4.9l0,0c-0.5,0.9-1.1,1.8-1.6,2.6
			c-1.2,1.8-2.6,3.5-4.2,5c-1.1,1.1-2.6,1.8-4.2,1.9c-0.5,0-1-0.2-1.4-0.6c-0.5-0.5-0.7-1.2-0.6-1.9c0-1.3,0.3-2.6,0.8-3.8
			c0.5-1.3,1.1-2.7,1.7-4.2c0.6-1.5,0.9-3.1,0.8-4.8c0-2-0.6-3.9-1.7-5.4c-1.3-1.7-3.3-2.6-5.4-2.5c-2,0-4,0.6-5.7,1.7
			c-2,1.2-3.8,2.6-5.5,4.3c-1.7,1.8-3.4,3.6-4.8,5.6c0.4-1.7,0.8-3.2,1.1-4.5c0.2-1,0.3-2,0.4-3c0-1.7-1-2.5-3-2.5
			c-0.9,0-1.8,0.2-2.6,0.7c-0.7,0.3-1.3,0.8-1.8,1.4c0,2-0.3,4.1-0.8,6c-0.2,0.8-0.4,1.7-0.7,2.5c-1.6,3.2-3.8,6-6.5,8.4
			c-2.5,2-4.4,3-5.7,3c-0.8,0.1-1.5-0.3-1.9-1c-0.4-0.6-0.6-1.3-0.6-2.1c0-1,0.3-2.1,0.7-3c0.5-1.1,1.1-2.1,1.7-3.1
			c0.7-1,1.2-2,1.7-2.9c0.4-0.7,0.7-1.4,0.7-2.2c0-0.6-0.3-1.2-0.8-1.5c-0.6-0.4-1.2-0.7-1.8-0.9c-0.4-0.1-0.7-0.2-1-0.3
			c-0.1,0-0.3-0.1-0.3-0.1c-0.3,0-0.6,0.2-0.7,0.4c-1.1,1.4-2.3,3.1-3.8,5.1c-1.5,2-3,4-4.6,5.9c-1.4,1.8-3,3.4-4.8,4.8
			c-1.2,1.1-2.7,1.8-4.3,1.9c-1.3,0-1.9-0.9-1.9-2.7c0-1.8,0.4-3.6,1-5.4c0.7-2.1,1.7-4.1,2.8-6.1c1.2-2,2.5-3.9,4-5.7
			c1.4-1.6,3-3,4.7-4.2c1.4-1,3.1-1.6,4.8-1.6c1.5,0,2.4,0.5,2.9,1.4c0.5,1,0.7,2,0.7,3.1c0,0.5,0,1.1-0.1,1.6
			c-0.1,0.5-0.2,1-0.3,1.5c1.3,0.3,2.7,0.1,3.8-0.6c1.1-0.7,1.7-2,1.6-3.3c0-2-0.9-3.8-2.6-4.9c-1.8-1.3-4-1.9-6.2-1.9
			c-2.4,0-4.8,0.6-7,1.7c-2.4,1.2-4.6,2.7-6.5,4.5c-2,1.8-3.9,3.9-5.4,6.2c-1.5,2.1-2.7,4.3-3.6,6.6l0,0c-0.8,1-1.6,2-2.5,3
			c-2,2.1-4.3,3.9-6.8,5.3c-2.2,1.3-4.6,2-7.2,2c-1.3,0.1-2.6-0.2-3.7-0.8c-0.8-0.5-1.5-1.2-1.9-2c-0.4-0.7-0.6-1.5-0.7-2.2
			c-0.1-0.5-0.1-1-0.1-1.5c0-0.4,0-0.8,0-1.2c0-0.2,0.1-0.5,0.1-0.7c2.6-0.3,5.2-0.9,7.6-1.8c2.5-0.9,4.8-2.1,6.9-3.6
			c2-1.3,3.7-3,5-5c1.2-1.8,1.9-3.9,1.9-6c0-2.3-0.7-3.8-2-4.5c-1.3-0.7-2.7-1.1-4.2-1.2c-2.8,0-5.5,0.8-7.8,2.3
			c-2.7,1.6-5.1,3.6-7.1,6c-2.1,2.4-3.8,5-5.1,7.9c-0.8,1.8-1.4,3.6-1.7,5.5v0c-1.3,2.1-2.8,3.9-4.6,5.6c-1.2,1.2-2.7,1.9-4.4,2
			c-1.1,0-2-0.5-2.6-1.4c-0.8-1.3-1.1-2.9-1-4.5c0-1.3,0.1-2.5,0.3-3.8c0.2-1.4,0.4-2.8,0.6-4.2c2.7-2.1,5.2-4.5,7.3-7.2
			c2.3-2.8,4.4-5.7,6.3-8.8c1.8-2.9,3.5-5.9,4.9-9c1.3-2.6,2.3-5.3,3.2-8.1c0.7-1.9,1.1-3.9,1.2-6c0-1-0.2-2-0.5-2.9
			c-0.3-1-0.7-1.9-1.2-2.7c-0.4-0.7-1.1-1.1-1.9-1.2c-1.1,0-2.5,0.9-4.2,2.8c-2.1,2.4-4,4.9-5.7,7.6c-2,3.2-4.1,6.7-6.1,10.7
			s-3.8,7.9-5.5,12.1c-1.6,3.8-2.9,7.8-4,11.8c-0.3,1.3-0.6,2.5-0.8,3.6c-1.4,2.4-3,4.6-4.9,6.7c-2.4,2.7-5.2,4.9-8.3,6.7
			c-2.8,1.6-5.9,2.5-9.1,2.6c-2.6,0.1-5.1-0.7-7.1-2.3c-1.8-1.6-3.2-3.7-3.9-6c-0.8-2.5-1.2-5.1-1.2-7.8c0-3.9,0.6-7.9,1.7-11.7
			c1.1-4.1,2.7-8.1,4.6-12c1.8-3.7,4.1-7.2,6.6-10.5c2.1-2.9,4.7-5.4,7.6-7.5c2.2-1.7,4.9-2.7,7.7-2.8c1.1-0.1,2.1,0.2,3,0.9
			c0.6,0.7,0.9,1.5,0.8,2.4c-0.1,1.4-0.4,2.7-0.9,4c-0.7,1.6-1.5,3.1-2.4,4.6c-1,1.6-2,3-3.1,4.4c-1.1,1.4-2,2.6-2.9,3.5
			c0.4,0.8,1,1.5,1.7,2c0.5,0.4,1.1,0.6,1.8,0.6c1.5-0.1,2.9-0.8,3.8-1.9c1.4-1.4,2.5-3,3.4-4.8c1-1.9,1.8-4,2.4-6.1
			c0.6-1.8,0.9-3.8,0.9-5.7c0-2.8-0.8-4.8-2.5-6c-1.9-1.2-4.1-1.8-6.3-1.7c-3.6,0-7.2,1-10.4,2.8c-3.7,2-7,4.5-9.8,7.5
			c-6.4,6.7-11.1,14.8-13.8,23.7c-1.3,4.4-2,8.9-2,13.5c0,3.4,0.6,6.8,1.9,10c1.2,3.2,3.3,5.9,6,7.9c3.1,2.1,6.8,3.2,10.6,3.1
			c3.9,0,7.8-1,11.2-2.8c3.5-2,6.7-4.5,9.4-7.6c1.1-1.2,2.1-2.5,3.1-3.8c0,0.1,0,0.3,0,0.4c-0.1,2.2,0.5,4.4,1.6,6.3
			c1,1.8,2.9,2.7,5.6,2.7c3.3,0,6.4-1.5,9.4-4.4c1-1,1.9-2,2.7-3.1c0.3,2.2,1.3,4.2,2.8,5.7c1.9,2,4.7,2.9,8.4,2.9
			c3.1,0,6.2-0.7,9-2.1c3-1.5,5.7-3.5,8-5.9c0,0.3,0,0.6,0,0.8c-0.4,3.7,2.4,7.1,6.1,7.4c0.3,0,0.6,0,0.9,0c2.2,0,4.4-0.9,6.1-2.4
			c2.3-2,4.4-4.1,6.2-6.4v0.4c0.1,1.7,0.8,3.4,1.9,4.8c1.3,1.5,3.2,2.4,5.2,2.2c2.3,0,4.5-0.7,6.4-2c1.8-1.2,3.5-2.6,4.9-4.3
			c-0.4,0.8-0.7,1.7-1,2.6c0.6,0.9,1.5,1.5,2.5,1.9c1,0.4,2,0.6,3.1,0.6c1.1-1.8,2.3-3.8,3.8-6.1c1.5-2.3,3-4.4,4.7-6.5
			c1.5-1.9,3.2-3.7,5.2-5.2c1.5-1.3,3.3-2,5.2-2.1c1.6-0.1,2.9,1.1,3,2.7c0,0.2,0,0.4,0,0.7c0,1.3-0.2,2.5-0.6,3.7
			c-0.4,1.3-0.8,2.6-1.2,3.9c-0.4,1.2-0.6,2.4-0.6,3.6c0,1.6,0.6,3.1,1.7,4.2c1.4,1.2,3.2,1.8,5.1,1.7c2.2,0,4.4-0.7,6.2-2.1
			c1.8-1.4,3.4-3.1,4.7-5.1c0,0.2,0,0.3,0,0.5c0,2,0.6,3.9,1.9,5.3c1.4,1.5,3.5,2.4,5.6,2.2c3.7-0.1,7.2-1.6,9.8-4.2
			c0.6-0.5,1.1-1,1.6-1.6c-0.3,0.7-0.5,1.3-0.7,2c0.6,0.9,1.5,1.5,2.5,1.9c1,0.4,2,0.6,3.1,0.6c1.1-1.8,2.3-3.8,3.8-6.1
			s3-4.4,4.7-6.5c1.5-1.9,3.2-3.7,5.2-5.2c1.5-1.3,3.3-2,5.2-2.1c1.6-0.1,2.9,1.1,3,2.6c0,0.2,0,0.5,0,0.7c0,1.3-0.2,2.5-0.6,3.7
			c-0.4,1.3-0.8,2.6-1.2,3.9c-0.4,1.2-0.6,2.4-0.6,3.6c0,1.6,0.6,3.1,1.7,4.2c1.4,1.2,3.2,1.8,5.1,1.7c2.2,0,4.4-0.7,6.2-2.1
			c1.6-1.3,3.1-2.8,4.3-4.5c0.3,1.4,0.9,2.7,1.8,3.7c1.3,1.6,3.3,2.5,5.4,2.4c2.4-0.1,4.8-0.9,6.7-2.5c2.3-1.8,4.4-3.9,6.2-6.2
			c-0.5,2-1,3.9-1.6,5.7c-0.6,1.8-1.2,3.4-1.8,4.9c-1.9,0.9-3.8,1.9-5.8,2.9c-1.9,1-3.8,2.1-5.6,3.4c-1.6,1.1-3,2.4-4.2,4
			c-1,1.4-1.6,3.1-1.6,4.9c-0.1,1.6,0.5,3.2,1.8,4.2c1.2,0.8,2.5,1.3,3.9,1.3c2.4,0,4.8-1,6.5-2.8c2.3-2.2,4.2-4.7,5.7-7.4
			c1.9-3.3,3.5-6.7,5-10.2c2.1-1,4.2-2.2,6.1-3.6c2.3-1.6,4.3-3.5,6.2-5.6c1.9-2.1,3.3-4.5,4.2-7.1L1413.3,1112.5z M1218.5,1110
			c1-1.8,2.3-3.4,3.7-5c1.2-1.4,2.6-2.6,4.2-3.7c1.2-0.9,2.6-1.3,4.1-1.4c0.4,0,0.8,0.1,1.1,0.3c0.3,0.4,0.4,0.8,0.3,1.3
			c0,1.7-0.6,3.3-1.6,4.7c-1.1,1.6-2.5,3.1-4.1,4.3c-1.6,1.3-3.4,2.4-5.2,3.2c-1.5,0.8-3.2,1.3-4.9,1.5
			C1216.6,1113.5,1217.5,1111.7,1218.5,1110L1218.5,1110z M1201.3,1097.2c1.3-3.2,2.7-6.1,4.2-9s2.8-5.3,4.2-7.6
			c1.1-1.8,2.3-3.5,3.5-5.2c1-1.3,1.7-1.9,2.2-1.9v0.2c-0.1,1.5-0.5,3.1-1,4.5c-0.7,2.2-1.5,4.3-2.5,6.4c-1.1,2.4-2.3,4.8-3.8,7.4
			c-1.5,2.5-3,5-4.8,7.5c-1.7,2.4-3.5,4.7-5.5,6.8C1198.9,1103.5,1200,1100.4,1201.3,1097.2z M1385.4,1143.9
			c-1.8,1.9-3.2,2.9-4.2,2.9c-0.5,0-0.9-0.2-1.2-0.6c-0.3-0.5-0.5-1.1-0.5-1.7c0-1.4,0.6-2.7,1.6-3.7c1.2-1.3,2.7-2.5,4.2-3.4
			c1.8-1.1,3.7-2.1,5.8-3.1C1389.1,1138.8,1387.2,1142,1385.4,1143.9z"/>
		<path class="st2" d="M1338.4,1083.7c-0.8-0.5-1.7-0.7-2.6-0.7c-1.6,0-3.2,0.5-4.6,1.4c-1.3,0.7-2.1,2-2.2,3.5
			c-0.1,1,0.4,2,1.3,2.5c0.9,0.5,1.9,0.8,2.9,0.8c1.6,0,3.1-0.6,4.2-1.7c1.1-0.8,1.9-2.1,2-3.4
			C1339.6,1085.2,1339.2,1084.3,1338.4,1083.7z"/>
		<path class="st2" d="M1470.2,1080.9c-0.7,1.6-1.2,3.1-1.7,4.6c-0.4,1.3-0.7,2.6-0.7,4c-0.1,1,0.3,2,0.9,2.8
			c0.8,0.8,1.7,1.3,2.8,1.5c1.1-1.8,2.1-3.6,3-5.5c1.1-2.2,2-4.5,2.7-6.8c0.7-2.2,1.1-4.4,1.1-6.7c0.1-2.4-0.8-4.7-2.4-6.4
			c-1.6-1.6-4.3-2.5-8.2-2.5c-3.5,0-7,0.7-10.2,2.2c-2.9,1.4-5.6,3.3-7.8,5.6c-2.1,2.2-3.7,4.7-5,7.4c-1.1,2.3-1.7,4.9-1.7,7.4
			c-0.1,2.4,0.6,4.7,2,6.7c1.4,1.9,3.1,3.6,5.1,4.9c2.1,1.4,4.3,2.8,6.6,3.9c2.3,1.2,4.5,2.5,6.6,3.8c2,1.2,3.7,2.7,5.1,4.5
			c1.3,1.7,2,3.8,2,6c0.1,2.3-0.8,4.6-2.3,6.4c-1.6,1.7-3.7,3.1-5.9,3.8c-2.4,0.8-4.9,1.3-7.4,1.3c-2.6,0.1-5.1-0.5-7.4-1.6
			c-1.8-0.9-3.4-2.3-4.4-4.1c-1-1.6-1.5-3.5-1.5-5.4c0-2,0.5-4,1.4-5.9c1-2.2,2.4-4.2,4.1-5.9c-2,0-4,0.4-5.9,1
			c-2,0.7-3.8,1.9-5.1,3.6c-1.5,2.1-2.2,4.6-2,7.2c-0.1,3.1,0.9,6.2,2.8,8.7c1.9,2.3,4.4,4.1,7.3,5.2c3,1.1,6.2,1.7,9.4,1.7
			c2.8,0,5.6-0.4,8.4-1.2c2.7-0.8,5.2-2,7.5-3.6c2.2-1.5,4-3.4,5.4-5.7c1.4-2.4,2-5.1,2-7.8c0.1-2.6-0.6-5.2-1.9-7.5
			c-1.3-2.1-3-3.9-5.1-5.3c-2.1-1.5-4.3-2.8-6.5-4c-2.3-1.2-4.5-2.4-6.5-3.6c-1.9-1-3.6-2.4-5.1-3.9c-1.3-1.4-2-3.3-1.9-5.2
			c0.1-1.9,0.5-3.8,1.3-5.5c2.1-4.4,5.5-8,9.8-10.2c2.3-1.2,4.9-1.8,7.5-1.8c1.8,0,3,0.3,3.6,0.9c0.6,0.6,0.9,1.5,0.9,2.4
			c0,1.3-0.3,2.7-0.7,3.9C1471.4,1077.8,1470.9,1079.3,1470.2,1080.9z"/>
		<path class="st2" d="M1503.5,1100.3c-0.1-0.1-0.1-0.1-0.2-0.2C1503.4,1100.2,1503.4,1100.2,1503.5,1100.3c0.2,0.4,0.4,0.8,0.3,1.3
			c0,1.7-0.6,3.3-1.6,4.7c-1.1,1.6-2.5,3.1-4.1,4.3c-1.6,1.3-3.4,2.4-5.2,3.2c-1.5,0.8-3.2,1.3-4.9,1.5c0,0,0,0,0,0
			c1.7-0.2,3.4-0.8,4.9-1.5c1.9-0.9,3.6-2,5.2-3.2c1.6-1.2,3-2.7,4.1-4.3c1-1.4,1.6-3,1.6-4.7
			C1503.9,1101.1,1503.8,1100.7,1503.5,1100.3z M1503.5,1100.3c-0.1-0.1-0.1-0.1-0.2-0.2C1503.4,1100.2,1503.4,1100.2,1503.5,1100.3
			c0.2,0.4,0.4,0.8,0.3,1.3c0,1.7-0.6,3.3-1.6,4.7c-1.1,1.6-2.5,3.1-4.1,4.3c-1.6,1.3-3.4,2.4-5.2,3.2c-1.5,0.8-3.2,1.3-4.9,1.5
			c0,0,0,0,0,0c1.7-0.2,3.4-0.8,4.9-1.5c1.9-0.9,3.6-2,5.2-3.2c1.6-1.2,3-2.7,4.1-4.3c1-1.4,1.6-3,1.6-4.7
			C1503.9,1101.1,1503.8,1100.7,1503.5,1100.3z"/>
		<path class="st2" d="M1686.3,1112c-1.2,2.6-2.8,4.9-4.8,6.9c-1.4,1.4-3.1,2.4-5,3l-0.1,0c0,0,0-0.1,0-0.1c0.1-0.5,0.2-1,0.2-1.5
			c0.1-0.6,0.1-1.2,0.1-1.9c0-2.6-0.4-5.2-1.2-7.8c-0.8-2.5-1.6-4.9-2.4-7.2c-0.7-1.9-1.2-4-1.2-6c0-0.7,0.1-1.3,0.2-1.9
			c0.1-0.4,0.2-0.8,0.2-1.2c-0.1-0.5-0.2-0.9-0.6-1.2c-0.4-0.4-0.9-0.6-1.5-0.5c-1.1,0-2.1,0.6-2.7,1.5c-0.8,1-1.1,2.6-1.1,5v0.9
			c-1,2.4-2.3,4.6-3.8,6.7c-1.3,1.9-2.8,3.6-4.3,5.3c-0.4,0.3-0.8,0.6-1.3,0.8h0c0,0,0,0,0,0c-0.4,0.2-0.7,0.3-1.1,0.5
			c-0.3,0.1-0.5,0.3-0.8,0.5c-0.7,0.5-1.3,1.2-1.7,2.1c-0.3,0.7-0.5,1.4-0.6,2.1c-0.5,0.7-1.1,1.3-1.7,2c-2,2.2-4.2,4-6.7,5.5
			c-2.1,1.3-4.6,2-7.1,2.1c-1.3,0.1-2.6-0.2-3.7-0.9c-0.8-0.5-1.5-1.2-1.9-2.1c-0.4-0.7-0.6-1.5-0.7-2.3c-0.1-0.7-0.1-1.2-0.1-1.5
			c0-0.4,0-0.9,0.1-1.3c0-0.3,0.1-0.5,0.1-0.7c2.6-0.3,5.1-0.9,7.5-1.9c2.4-0.9,4.8-2.2,6.9-3.7c2-1.4,3.7-3.2,5-5.2
			c1.2-1.9,1.9-4,1.9-6.3c0-2.3-0.7-3.9-2-4.7c-1.3-0.8-2.7-1.2-4.2-1.2c-2.8,0.1-5.4,0.9-7.8,2.4c-2.7,1.7-5.1,3.8-7.1,6.2
			c-2.1,2.5-3.8,5.2-5.1,8.2c-0.8,1.9-1.4,3.9-1.7,5.9c-0.5,0.8-1.1,1.5-1.7,2.2c-1.8,2.2-4,4-6.5,5.4c-2,1.2-4.3,1.9-6.7,1.9
			c-2.4,0-4-0.7-4.8-2.1c-0.8-1.4-1.2-2.9-1.2-4.5c0-2.2,0.5-4.3,1.2-6.4c0.8-2.3,1.9-4.5,3.2-6.6c1.2-1.9,2.6-3.6,4.3-5.1
			c1.2-1.2,2.8-1.9,4.4-2c0.5-0.1,0.9,0.1,1.3,0.4c0.2,0.3,0.4,0.7,0.3,1.1c0.1,1.5-0.3,3-0.9,4.3c-0.4,0.9-1,1.7-1.8,2.3
			c0.5,1,1.5,1.6,2.6,1.7c1.3,0,2.3-0.8,3.1-2.3c0.7-1.5,1.1-3.1,1.1-4.8c0-1.6-0.5-3.1-1.6-4.3c-1-1.2-2.7-1.8-5.1-1.8
			c-2.4,0-4.7,0.7-6.8,1.9c-2.3,1.4-4.3,3.1-6,5.2c-1.8,2.2-3.3,4.8-4.3,7.5c-0.6,1.4-1,2.9-1.2,4.4v0c-1.2,2.3-2.8,4.3-4.7,6.1
			c-2.3,2-4.3,3-6.2,3c-1,0.1-2-0.3-2.8-0.9c-0.6-0.6-1-1.9-1-3.7c0-2.1,0.5-4.2,1.3-6.1c0.9-2.1,1.9-4.2,3-6.2l3-5.3
			c0.7-1,1.1-2.2,1.3-3.4c0-0.7-0.2-1.4-0.8-1.9c-0.5-0.4-1.1-0.7-1.8-0.7c-1.4,0.1-2.8,0.8-3.7,1.9c-1.4,1.5-2.5,3.1-3.5,4.9
			c-1.1,2.1-2,4.2-2.8,6.4c-0.7,1.8-1.2,3.7-1.7,5.5c-0.4,0.5-0.8,1-1.3,1.5c-0.9,0.9-2,1.4-3.2,1.5c-0.9,0.1-1.8-0.3-2.4-1
			c-0.6-0.7-0.9-1.6-1-2.5c-0.4-2.8-0.3-5.6,0.5-8.3c0.4-1,0.8-2,1.3-2.9c0.5-0.7,0.7-1.5,0.7-2.4c0-0.9-0.3-1.7-0.8-2.5
			c-0.6-1-1.7-1.5-2.9-1.4c-1.3,0-2.5,0.8-3,2c-0.8,1.3-1.2,4-1.3,8c-0.8,1.9-1.8,4-2.9,6c-1.1,2-2.2,3.9-3.5,5.8
			c-1,1.6-2.2,3.1-3.6,4.4c-0.8,1-2,1.6-3.3,1.7c-0.7,0-1.1-0.4-1.3-1.3c-0.2-1.3-0.3-2.7-0.3-4c0-1.9,0.1-3.8,0.2-5.8
			c0.1-2,0.2-3.9,0.2-5.6c0.1-1.1-0.1-2.3-0.4-3.4c-0.2-0.6-1.1-0.8-2.4-0.8c-1.5,0-2.4,0.3-2.7,1c-0.4,1.2-0.6,2.4-0.5,3.6
			c-0.1,1.7-0.1,3.2-0.2,4.5c-0.4,0.7-0.9,1.4-1.4,2.2c-1.1,1.5-2.3,3-3.7,4.3c-1.3,1.3-2.7,2.4-4.3,3.3c-1.3,0.8-2.7,1.2-4.2,1.3
			c-0.5,0-1-0.1-1.5-0.4c-0.5-0.4-0.7-1-0.6-1.6c0.1-1.4,0.4-2.7,1.1-4c0.7-1.5,1.5-3.2,2.2-4.9c0.7-1.6,1.1-3.4,1.1-5.2
			c0.1-1.7-0.4-3.3-1.3-4.7c-0.9-1.2-1.9-2.2-3.1-3.1c-1.2-0.8-2.2-1.5-3.2-2.2c-0.8-0.4-1.3-1.1-1.5-1.9c0.1-0.4,0.3-0.9,0.6-1.7
			c0.2-0.5,0.3-1,0.4-1.6c-0.1-0.6-0.2-1.1-0.5-1.6c-0.2-0.7-0.8-1.2-1.5-1.2c-0.8,0-1.7,0.7-2.6,2c-0.9,1.3-1.3,2.8-1.3,4.3
			c0,0.9,0.3,1.7,0.8,2.4c-1.1,3.2-2.3,6.3-3.7,9.4c-1.1,2.3-1.9,4.2-2.7,5.6c-1.1,1.7-2.3,3.4-3.7,4.9c-2,2.2-4.2,4-6.7,5.5
			c-2.1,1.3-4.6,2-7.1,2.1c-1.3,0.1-2.6-0.2-3.7-0.9c-0.8-0.5-1.5-1.2-1.9-2.1c-0.4-0.7-0.6-1.5-0.7-2.3c-0.1-0.7-0.1-1.2-0.1-1.5
			c0-0.4,0-0.9,0.1-1.3c0-0.3,0.1-0.5,0.1-0.7c2.6-0.3,5.1-0.9,7.5-1.9c2.4-0.9,4.8-2.2,6.9-3.7c2-1.4,3.7-3.2,5-5.2
			c1.2-1.9,1.8-4,1.8-6.3c0-2.3-0.7-3.9-2-4.7c-1.3-0.8-2.7-1.2-4.2-1.2c-2.8,0.1-5.4,0.9-7.8,2.4c-2.7,1.7-5.1,3.8-7.1,6.2
			c-2.1,2.5-3.8,5.2-5.1,8.2c-1.2,2.6-1.8,5.4-1.9,8.2c-0.1,2.8,1,5.6,2.9,7.6c1.9,2,4.7,3,8.3,3c3.1,0,6.2-0.8,8.9-2.2
			c3-1.6,5.7-3.6,7.9-6.2c1.3-1.4,2.4-2.9,3.4-4.5l0,0.1c1-1.7,2.2-4.1,3.8-7.1c1.6-3,3-6.2,4.2-9.4c1.1,0.6,2.1,1.3,2.9,2.3
			c0.9,0.9,1.3,2.1,1.3,3.4c-0.1,1.7-0.5,3.3-1.2,4.8c-0.8,1.8-1.6,3.7-2.4,5.6c-0.7,1.7-1.1,3.5-1.2,5.3c-0.1,1.8,0.6,3.5,1.9,4.6
			c1.4,1.2,3.2,1.8,5.1,1.7c2.7,0,5.3-0.9,7.5-2.3c2.6-1.6,4.8-3.6,6.7-6c0.5-0.6,1-1.2,1.4-1.8c0,0.3,0,0.6,0,0.7
			c-0.1,2.6,0.3,5.2,1.2,7.6c0.6,1.8,2.4,3,4.3,3c2.1-0.1,4.1-1.1,5.5-2.6c2-1.9,3.8-4.1,5.4-6.5c1.7-2.5,3.2-5.1,4.6-7.8
			c0.5,2.1,1.4,4.1,2.7,5.9c1,1.5,2.7,2.4,4.5,2.3c1.7-0.1,3.3-0.8,4.6-1.9c0.2-0.2,0.5-0.4,0.7-0.6c-0.1,0.9-0.2,1.8-0.2,2.6
			c-0.1,2,0.6,4,1.9,5.6c1.4,1.6,3.5,2.4,5.6,2.3c3.5,0,6.7-1.4,9.8-4.3c1.3-1.3,2.5-2.7,3.5-4.2c0.1,3.6,1.1,6.2,2.8,8
			c1.9,1.9,4.5,3,7.2,2.9c3,0,6-0.9,8.6-2.4c3-1.7,5.7-4,7.9-6.6c0.2-0.3,0.5-0.6,0.7-0.8c0.3,2.2,1.3,4.2,2.8,5.8
			c1.9,2,4.7,3,8.3,3c3.1,0,6.2-0.8,8.9-2.2c3-1.6,5.7-3.6,7.9-6.2c0.2-0.2,0.4-0.5,0.6-0.7c0.2,1.1,0.5,2.3,0.9,3.3
			c0.7,1.9,2,3.5,3.7,4.6c2,1.3,4.4,1.9,6.8,1.8c2.4,0,4.8-0.6,7-1.8c2.1-1.2,3.6-3.1,4.4-5.4h0c2.7-0.5,5.2-1.8,7.1-3.7
			c2.2-2.3,3.7-5,4.6-8L1686.3,1112z M1634.1,1110c1-1.8,2.3-3.4,3.7-5c1.2-1.4,2.6-2.6,4.2-3.7c1.2-0.9,2.6-1.3,4.1-1.4
			c0.4,0,0.8,0.1,1.1,0.3c0.3,0.4,0.4,0.8,0.3,1.3c0,1.7-0.6,3.3-1.6,4.7c-1.1,1.6-2.5,3.1-4.1,4.3c-1.6,1.3-3.4,2.4-5.2,3.2
			c-1.5,0.8-3.2,1.3-4.9,1.5C1632.2,1113.5,1633,1111.7,1634.1,1110L1634.1,1110z M1490.5,1110c1.1-1.8,2.3-3.4,3.7-5
			c1.2-1.4,2.6-2.6,4.2-3.7c1.2-0.9,2.6-1.3,4.1-1.4c0.1,0,0.3,0,0.4,0c0.2,0,0.4,0.1,0.5,0.2c0.1,0,0.1,0.1,0.2,0.2
			c0.3,0.4,0.4,0.8,0.3,1.3c0,1.7-0.6,3.3-1.6,4.7c-1.1,1.6-2.5,3.1-4.1,4.3c-1.6,1.3-3.4,2.4-5.2,3.2c-1.5,0.8-3.2,1.3-4.9,1.5
			c0,0,0,0,0,0C1488.6,1113.5,1489.5,1111.7,1490.5,1110L1490.5,1110z M1666.6,1126.7c-0.9,0.6-2,0.9-3.1,0.8
			c-1.9,0.1-3.7-0.8-4.8-2.5c-1-1.6-1.6-3.4-1.6-5.3c0-1.4,0.4-2.1,1.2-2.3c1.2,1.5,2.7,2.9,4.3,4c1.9,1.3,4,2.2,6.3,2.7
			C1668.4,1125.3,1667.6,1126.1,1666.6,1126.7L1666.6,1126.7z M1669.8,1120.3c0,0.5-0.1,0.9-0.2,1.4c-2.2-0.5-4.2-1.5-6-2.9
			c-1.6-1.2-2.9-2.7-4-4.3c1.4-1.5,2.7-3.2,3.8-4.9c1.4-2,2.5-3.9,3.6-5.7c0.6,2.6,1.2,5.1,1.9,7.6c0.6,2.5,1,5,1,7.6
			C1669.9,1119.4,1669.9,1119.8,1669.8,1120.3L1669.8,1120.3z"/>
		<path class="st2" d="M1598.2,1083.7c-0.8-0.5-1.7-0.7-2.6-0.7c-1.6,0-3.2,0.5-4.6,1.4c-1.3,0.7-2.1,2-2.2,3.5
			c-0.1,1,0.4,2,1.3,2.5c0.9,0.5,1.9,0.8,2.9,0.8c1.6,0,3.1-0.6,4.2-1.7c1.1-0.8,1.8-2.1,1.9-3.4
			C1599.4,1085.2,1599,1084.3,1598.2,1083.7z"/>
	</g>
	<path class="st3" d="M1675.6,1124.5"/>
	<path class="st3" d="M1669.6,1121.7"/>
	<g>
		<path class="st4" d="M390.6,779.2c-7.1-10-16.3-18.4-26.9-24.5c-11.4-6.7-23.6-11.7-36.4-14.9c-12.6-3.3-25.6-5-38.6-5
			c-11.9,0-23.7,1.2-35.4,3.6c-11.1,2.2-22,5.2-32.8,8.8c-10.1,3.5-18.8,6.8-26.3,10c0,1.9,0.9,4,2.8,6.4c1.9,2.4,4.1,4.6,6.6,6.4
			c2.5,1.9,4.5,2.8,5.8,2.8c2.1,0,5.5-1.3,10-3.8s10.5-5.5,17.7-8.8c8.4-3.7,17.1-6.5,26.1-8.2c-10.2,22.5-19.4,44.1-27.5,64.7
			c-8.2,20.6-16,41.2-23.3,61.7c-7.4,20.5-14.7,41.8-21.9,63.9c-7.2,22.1-15,45.9-23.3,71.4c-1.1,3.5-2.2,7.2-3.4,11.2
			c-1.1,3.6-1.8,7.4-1.8,11.3c0,6.7,3.6,12.2,10.6,16.5c6.8,4.2,14.7,6.4,22.7,6.4c6.2-21.4,12.9-45.4,20.1-71.7
			c7.2-26.4,14.6-52.9,22.1-79.4h2.4c4.8,0,12.1-0.4,21.7-1.2c9.7-0.8,20.6-2.3,32.8-4.4c12.5-2.2,24.8-5.4,36.8-9.6
			c12.1-4.2,23.7-9.9,34.4-16.9c10.3-6.6,19-15.4,25.5-25.7c6.4-10.2,9.6-22.4,9.6-36.6C400.8,800.5,397.4,789,390.6,779.2z
			 M356.4,844.8c-7.7,11-17.7,20.1-29.4,26.7c-12.8,7.3-26.5,13-40.8,16.7c-14.7,4-29.8,6.5-45,7.6c8-27.9,16.5-54.6,25.3-80.2
			c8.8-25.6,18.1-47.8,27.7-66.5c12,0.2,23.9,2.5,35.2,6.8c10.6,3.9,20,10.4,27.3,18.9c7.1,8.3,10.7,19.2,10.6,32.6
			C367.5,821.7,363.8,834.1,356.4,844.8L356.4,844.8z"/>
		<path class="st4" d="M468.2,819.5c-3.7-2.2-7.9-3.4-12.3-3.2c-7.8,0.1-15.3,2.5-21.7,6.8c-7,4.6-10.5,10.1-10.5,16.5
			c0,5.4,2.1,9.3,6.2,11.9c4.2,2.6,9,3.9,13.9,3.8c7.2,0,13.9-2.6,20.1-7.8s9.2-10.7,9.2-16.3C473.2,825.5,471.5,821.7,468.2,819.5z
			"/>
		<path class="st4" d="M739.1,819.5c-3.7-2.2-7.9-3.4-12.3-3.2c-7.8,0.1-15.3,2.5-21.7,6.8c-7,4.6-10.5,10.1-10.5,16.5
			c0,5.4,2.1,9.3,6.2,11.9c4.2,2.6,9,3.9,13.9,3.8c7.2,0,13.9-2.6,20.1-7.8c6.2-5.2,9.2-10.7,9.2-16.3
			C744.1,825.5,742.5,821.7,739.1,819.5z"/>
		<path class="st4" d="M880,955.4c-6.7,12.8-15.1,24.6-25.1,35c-9.4,9.9-20.2,18.4-32.2,25.1c-11.4,6.3-22.7,9.4-34,9.4
			c-7.5,0-13.4-1.3-17.7-4c-3.9-2.3-7.1-5.6-9.2-9.7c-1.7-3.3-2.9-6.9-3.4-10.7c-0.3-2.3-0.5-4.7-0.6-7c0-1.9,0-3.9,0.2-5.8
			c0.1-1.2,0.3-2.3,0.6-3.4c12.3-1.4,24.4-4.3,36-8.6c11.6-4.3,22.6-10,32.8-17.1c9.3-6.4,17.4-14.4,23.7-23.7
			c5.8-8.4,8.9-18.4,8.8-28.5c0-10.7-3.1-17.9-9.5-21.5c-6-3.5-12.9-5.4-19.9-5.4c-12.3,0-24.7,3.6-37,10.8
			c-12.7,7.6-24.1,17.1-33.8,28.3c-9.9,11.2-18.1,23.8-24.3,37.4c-4.2,8.8-7,18.3-8.4,27.9c0,0,0,0,0,0
			c-5.7,8.2-11.2,14.7-16.7,19.3c-10.7,9.1-20.6,13.7-29.8,13.7c-5.9,0-10.4-1.4-13.5-4.2c-3.1-2.8-4.6-8.5-4.6-17.1
			c0-8.8,2.1-18.2,6.2-27.9c4.2-9.8,9-19.2,14.5-28.3c5.5-9.1,10.3-17.1,14.5-24.1c4.1-7,6.2-12.2,6.2-15.7c0-3.8-1.2-6.6-3.6-8.7
			c-2.4-2-5.4-3.1-8.4-3c-5.9,0-11.8,2.9-17.7,8.6c-6.5,6.6-12.1,14.1-16.5,22.3c-5.2,9.4-9.7,19.1-13.5,29.1
			c-2.9,7.5-5.3,15.2-7.4,23c-0.7,1.2-1.5,2.3-2.2,3.5c-4.4,6.8-9.3,13.4-14.5,19.7c-4.7,5.8-10,11-15.9,15.5c-5.4,4-10.3,6-14.9,6
			c-4.8,0-8.6-2.4-11.5-7.2c-3.1-5.6-5.2-11.6-6.2-17.9c-1.3-7.1-2.3-14-3-20.7c-0.5-5.3-1.2-10.5-2.2-15.7
			c8.8-9.9,17.5-18.8,25.9-26.7c7.1-6.8,14.6-13.1,22.5-18.9c6.6-4.7,11.6-7,15.1-7c-1.1-3.4-3.3-6.3-6.4-8c-3-1.6-5.2-2.4-6.8-2.4
			c-3.8,0-10.6,4.1-20.5,12.3c-9.9,8.2-20.9,18.3-33,30.3c-3-10.5-7.2-18.8-12.7-24.9c-5.5-6.2-13.6-9.2-24.3-9.2
			c-9.4,0-17.2,2.2-23.3,6.6c-6.3,4.6-11.6,10.4-15.5,17.1c-4.2,7.1-8,14.4-11.2,21.9c-3.4,7.6-10,22.6-10,22.6
			c-9.8,19.8-18.1,28.1-26.8,35.5c-10.7,9.1-20.6,13.7-29.8,13.7c-5.9,0-10.4-1.4-13.5-4.2c-3.1-2.8-4.6-8.5-4.6-17.1
			c0-8.8,2.1-18.2,6.2-27.9c4.2-9.8,9-19.2,14.5-28.3c5.5-9.1,10.3-17.1,14.5-24.1c4.1-7,6.2-12.2,6.2-15.7c0-3.8-1.2-6.6-3.6-8.7
			c-2.4-2-5.4-3.1-8.4-3c-5.9,0-11.8,2.9-17.7,8.6c-6.5,6.6-12.1,14.1-16.5,22.3c-5.2,9.4-9.7,19.1-13.5,29.1
			c-3.7,9.6-6.7,19.5-9,29.6c-2.2,9.4-3.2,17.2-3.2,23.3c0,9.9,2.9,18.4,8.8,25.3c5.9,7,14.7,10.4,26.5,10.4
			c16.6,0,32.2-6.6,46.6-19.7c10.8-9.8,20.2-22.5,28.2-38.2c0.5-1,1-1.9,1.6-2.8c2.7-4.1,10.8-16.8,14.8-24.1
			c4.2-7.9,9.2-15.4,14.9-22.3c5.1-6,10.6-9,16.5-9c5.9,0,9.9,3.5,12.1,10.5c2.1,7,4.2,17,6,30.2c-10.5,11.3-20.2,22.2-29.3,33
			c-9.1,10.7-16.5,20.2-22.1,28.3c-5.6,8.2-8.4,14.1-8.4,17.9c0.1,1.9,0.7,3.7,1.8,5.2c1.2,1.9,3.2,2.9,5.4,2.8
			c2.7,0,5.3-1.4,6.8-3.6c4.6-5.9,11.2-14.1,19.9-24.7c8.7-10.6,18.4-21.9,29.2-34c1.3,7.9,3.2,15.7,5.8,23.3c2.2,7,6,13.4,11,18.7
			c4.8,5,11.4,7.4,19.7,7.4c10.2,0,20.1-3.6,29.8-10.9c9.8-7.5,18.3-16.4,25.4-26.4c0,0.9-0.1,1.8-0.1,2.7c0,9.9,2.9,18.4,8.8,25.3
			c5.9,7,14.7,10.4,26.5,10.4c16.6,0,32.2-6.6,46.6-19.7c4.8-4.4,9.2-9.2,13.2-14.3c1.5,9.8,6.1,18.8,13.2,25.7
			c9.2,9.2,22.5,13.9,39.6,13.9c14.7-0.1,29.2-3.5,42.4-10c14.2-7,27-16.5,37.8-28.1c11.6-12.4,21.1-26.7,27.9-42.2L880,955.4z
			 M775.1,944.1c5-8.4,10.7-16.3,17.3-23.5c5.8-6.6,12.4-12.4,19.7-17.3c6.7-4.4,13.1-6.6,19.3-6.6c2.4,0,4.1,0.5,5.2,1.6
			c1.1,1.1,1.6,3.1,1.6,6c0,7.5-2.5,14.9-7.6,22.3c-5.4,7.7-12,14.6-19.5,20.3c-7.6,6-15.9,11.1-24.7,15.3c-8.6,4-16.4,6.4-23.3,7.2
			C766.2,960.6,770.3,952.2,775.1,944.1L775.1,944.1z"/>
		<path class="st4" d="M1240,790.8c-6.9-16.8-18.9-31-34.4-40.6c-15.8-10-36.9-15.1-63.1-15.1c-17.7-0.2-35.3,2.4-52.3,7.4
			c-15,4.5-29.3,11.1-42.4,19.7c-12.2,8.2-21.7,17.1-28.6,26.7s-10.2,19.2-10.2,28.5c-0.2,6.9,2.5,13.5,7.4,18.3
			c5,5,13.2,7.4,24.7,7.4c-1.3-3.2-2.3-6.5-2.8-9.8c-0.5-3.1-0.8-6.3-0.8-9.5c-0.2-13.4,4-26.4,11.8-37.2
			c7.9-10.9,18.8-19.4,32.8-25.7c13.9-6.3,29.6-9.4,47-9.5c16.6,0,31.3,3.1,44.2,9.5c12.9,6.3,23,16.2,30.3,29.8
			c7.4,13.5,11.1,31.2,11.1,52.9c0,16.9-2.7,34.6-8,53.1c-5.5,18.9-13.2,37-22.9,54.1c-9.6,17.2-21.3,33.1-34.8,47.4
			c-12.6,13.6-27.3,25-43.6,33.8c-15.3,8.3-32.4,12.7-49.8,12.7c-3.7,0-7.4-0.2-11.1-0.6c-3.1-0.2-6.1-0.8-9-1.8
			c4-19,9.2-40,15.5-62.9c6.3-22.9,13.3-46.5,20.9-70.8c7.6-24.3,15.7-47.8,24.1-70.8c8.5-22.9,16.8-43.8,25.1-62.5
			c-5.6-3.7-10.7-5.6-15.3-5.6c-4.6,0-9.1,1.7-12.7,4.6c-4,3.2-7.5,7.1-10.2,11.5c-2.8,4.2-5.2,8.7-7.2,13.3c-1.9,4.3-3.2,7.5-4,9.7
			c-1.9,5.1-4.8,13.3-8.7,24.7s-8.3,24.7-13.3,39.8c-5,15.1-10,31-15.1,47.6c-5.1,16.6-9.9,32.8-14.5,48.4
			c-4.6,15.7-8.4,29.7-11.5,42c-3.1,12.3-5,21.7-5.8,28.1c6.2,8.3,13.5,13.7,21.9,16.3c8.7,2.6,17.7,3.9,26.7,3.8
			c19.9-0.1,39.5-3.7,58.1-10.8c19.5-7.4,37.8-17.7,54.3-30.6c17.1-13.2,32.3-28.8,45-46.2c13-17.7,23.3-37.3,30.6-58.1
			c7.4-21.3,11.1-43.6,11.1-66.1C1250.6,826.7,1247.1,807.8,1240,790.8z"/>
		<path class="st4" d="M1694.1,954.1c-10.4,20.9-22.7,37.5-36.7,49.7c-14.1,12.2-27.8,18.3-41.2,18.3c-7.5,0-13-2.3-16.5-6.8
			c-3.5-4.6-5.2-12.3-5.2-23.3c0.1-13.7,2.2-27.3,6.2-40.4c4.1-13.7,9-27.2,14.7-40.4h6.9c11-0.3,22.6-0.8,34.7-1.6
			c12.1-0.8,25.4-1.8,39.9-3.2v-13c-9.7,1-19.3,1.8-28.6,2.2c-9.3,0.4-19.8,0.6-31.4,0.6H1623c7.5-15,15.3-29.1,23.4-42.4
			c8.1-13.3,14.8-24.9,20.3-34.8c5.5-9.9,8.3-17.5,8.3-22.9c0-3.8-1.2-6.6-3.6-8.6c-2.1-1.9-4.8-3-7.7-3c-4.6,0-9.8,3-15.7,9
			c-5.9,6-12.1,14.3-18.7,24.7c-7.2,11.5-13.8,23.4-19.7,35.6c-6.6,13.3-12.7,27-18.3,41.2c-3-0.3-5.8-0.5-8.7-0.8
			c-2.8-0.3-6.4-0.7-10.7-1.2v12.5c2.4,1.1,4.9,1.8,7.5,2.2c2.2,0.3,4.5,0.8,6.6,1.4c-6.2,16.6-11.5,33.5-15.9,50.6
			c-1.2,4.6-2.2,8.9-3,13.1c-3.5,5-7.6,9.6-12.1,13.7c-8.1,7.1-24.6,13.9-24.6,13.9s0.9-5,1.2-7.6c0.3-2.9,0.4-5.9,0.4-8.8
			c0-12-2-24-5.8-35.4c-3.9-11.5-7.8-22.4-11.7-32.8c-3.9-10.3-5.8-19.5-5.8-27.5c-0.1-3,0.2-6,1-8.8c0.6-1.8,0.9-3.7,1-5.6
			c-0.3-2.1-1.2-4.1-2.6-5.6c-1.5-1.6-3.8-2.4-7.1-2.4c-4.8,0-9.1,2.2-12.7,6.6c-3.6,4.4-5.4,12-5.4,22.7v3.7
			c-4.9,10.9-11,21.2-18.3,30.7c-6.4,8.5-13.3,16.6-20.7,24.3c-1.7,1.5-3.6,2.7-5.8,3.4l-4,1.8c-1.9,0.9-3.7,1.9-5.5,3.1
			c-3.5,2.3-6.3,5.6-8,9.4c-1.7,3.5-2.8,8.1-3.1,13.9c-1.2,1.6-2.5,3.1-3.7,4.6c-8.3,9.7-16.3,17-24.1,22.1
			c-7.8,5.1-14.5,7.6-20.1,7.6c-4.3,0-7.2-1.4-8.6-4.2c-1.5-3.1-2.3-6.4-2.2-9.8c0-6.4,1.3-13.9,3.8-22.3c2.5-8.4,5.5-16.6,8.8-24.7
			c3.3-8,6.3-14.9,8.8-20.7c2.5-5.8,3.8-9,3.8-9.8c0.1-3.1-1.7-6-4.4-7.4c-3.2-1.8-6.7-3.3-10.2-4.2c-3.1-0.9-6.2-1.6-9.4-2
			c-2.7,5.9-6.1,13.1-10.2,21.7s-8.8,17.4-14.1,26.5c-5.2,9.1-10.6,17.6-16.1,25.5c-4.7,7-10.1,13.4-16.1,19.3
			c-5.2,5-10.1,7.4-14.7,7.4c-4,0-6.8-1.7-8.4-5.2c-1.6-3.6-2.7-7.4-3-11.3c-0.4-4-0.6-6.6-0.6-7.6c0-8.3,1.6-17.5,4.8-27.7
			c3-9.8,6.7-19.3,11-28.6c4.1-8.8,7.7-15.4,10.6-19.7c-3-3-6.5-5.5-10.2-7.4c-3.9-2-6.8-3-8.6-3c-3.5,0-7.3,3.2-11.4,9.7
			c-4.8,7.6-8.8,15.7-12,24.1c-3.9,9.7-7,19.6-9.4,29.8c-2.4,10.2-3.6,19-3.6,26.5c-0.2,10.4,2.8,20.6,8.6,29.2
			c5.8,8.4,13.2,12.7,22.3,12.7c6.7,0,13-2.3,19.1-6.8c6.4-4.9,12.1-10.7,17.1-17.1c5.3-6.8,10.3-13.8,14.9-21.1v8
			c0.3,5.9,1.1,11.7,2.4,17.5c1.1,5.4,3.9,10.3,7.8,14.1c3.9,3.6,9.7,5.4,17.5,5.4c10.2,0,20.6-3.3,31.3-9.8
			c10.4-6.4,20.2-15.1,29.4-26.2c0.9,5.3,2.3,10.4,4.4,15.4c3.6,8.6,9.7,15.9,17.5,20.9c8.2,5.5,18.9,8.2,32.3,8.2
			c12.3,0,23.3-2.7,33.1-8c9.8-5.4,16.8-13.5,21.1-24.5c12.7-2.1,24.5-8.1,33.7-17.1c1.3-1.2,2.5-2.5,3.6-3.8
			c-0.3,3.2-0.4,6.3-0.4,9.2c0,14.2,3.6,24.8,10.8,31.8c7.2,7,16.7,10.5,28.5,10.4c12.8,0,25.3-3.7,37.4-11.1
			c12-7.4,23.2-17.5,33.5-30.3c10.5-13.1,19.2-27.6,25.9-43L1694.1,954.1z M1484.6,1023.2c-4.5,2.7-9.6,4.1-14.9,4
			c-9.9,0-17.4-3.9-22.5-11.6c-5-7.4-7.6-16-7.6-24.9c0-6.4,1.9-10,5.6-10.8c4.8,6.4,11.7,12.7,20.5,18.9c9,6.2,19.1,10.6,29.7,12.9
			C1493,1016.4,1489.3,1020.5,1484.6,1023.2L1484.6,1023.2z M1499.7,992.9c-0.1,2.2-0.4,4.5-1,6.6c-10.4-2.5-20.1-7.2-28.5-13.7
			c-8.3-6.4-14.6-13.3-18.9-20.5c6.7-7.2,12.7-15,18.1-23.3c6.4-9.7,12.1-18.6,16.9-26.9c2.9,12.3,5.9,24.4,8.8,36.2
			c2.9,11.7,4.6,23.7,4.8,35.8C1499.9,988.4,1499.8,990.3,1499.7,992.9L1499.7,992.9z"/>
		<path class="st4" d="M1437.8,957.8c-1.2,0.4-2.3,1-3.6,1.6l4-1.8C1438.1,957.7,1437.9,957.7,1437.8,957.8z"/>
		<path class="st4" d="M1434.2,959.4c1.2-0.6,2.4-1.1,3.6-1.6c0.2-0.1,0.3-0.1,0.5-0.2"/>
	</g>
</g>
<path class="st5" d="M1150.3,461.9c-0.6-0.7-1.4-1.2-2.3-1.6c-2.2-0.9-4.5-1.7-6.2-2.6c7.5,5.1,14.3,11.6,17.9,20.8
	c2.1,5.5,2.3,11.1,1.1,16.8c-0.4,1.8-0.9,2.1-2.7,1.7c-7.9-1.7-15.9-2-23.9-1.7c-12.2,0.5-24.3,2.1-36.3,4.3
	c-12.1,2.2-24,4.8-35.8,8c-6.6,1.7-35.6,7.4-43.6,7.1c-8.1-0.3-16-1.8-22.8-6.6c-5.6-4-9-9.4-10-16.2c0.1-0.8-0.1-1.5-0.1-2.3
	c0.4-0.9,1.2-1.3,2.1-1.6c3.2-3.5,7.1-6,9.7-7.4c5.3-2.9,17.7-8.1,23.2-10.6c9.6-4.4,37.8-10.9,43.1-12.1c0.1,0,23.4-4.9,32.6-5.8
	c5.6-0.5,11.1-1,16.7-0.8c7.7,0.2,15.3,0.8,22.7,3.2c0.3,0.1,0.5,0.2,0.9,0C1136.6,453.7,1157.9,470.7,1150.3,461.9z"/>
<path class="st6" d="M1186.1,522.3c0.2,1.3,0.4,2.6,0.6,4c0.2,0.5-0.1,1.2,0.3,1.7c0,1.9,0,3.8,0,5.7c-0.5,0.4-0.2,0.9-0.3,1.4
	c-0.2,0.3-0.5,0.5-0.3,0.9c-0.4,3.1-1.5,6-3.2,8.7c-0.2,0.3-0.4,0.6-0.7,0.6c-0.4,0-0.4-0.5-0.5-0.8c-2.2-5.2-5.2-9.8-8.8-14.1
	c-4.7-5.7-10.5-9.9-17-13.1c-6.1-3-12.6-4.8-19.3-5.7c-0.3-0.2-0.5-0.5-0.9-0.3c-5.9-0.7-11.7-1-17.6-0.9c-4.1,0.1-8.2,0.6-12.2,0.9
	c-0.4,0-0.8-0.1-1.1,0.3c-1.6,0.2-3.2,0.4-4.8,0.6c-0.5-0.4-0.8,0.1-1.1,0.3c-0.3,0-0.6,0-0.8,0c-0.4-0.2-0.8,0.1-1.1,0.3
	c-0.8,0.1-1.5,0.2-2.3,0.3c-0.3,0-0.6,0.1-0.9,0.3c-4.2,0.6-8.2,1.6-12.3,2.6c-12.6,3.2-24.9,7.3-36.9,12.3
	c-10,4.2-19.7,8.8-28.6,15.1c-3.6,2.6-7.1,5.4-10.4,8.3c-6.3,5.6-11.5,12-16,19.1c-5.1,8-8.6,16.7-10.9,25.9
	c-0.3,1.4-0.8,2.8-0.9,4.3c-0.3,0.2-0.3,0.5-0.3,0.9c-0.1,0.9-0.2,1.9-0.3,2.8c-0.2,0.2-0.5,0.5-0.3,0.9c0,1.3-0.4,2.6-0.3,4
	c-0.3,0.4-0.5,0.9-0.3,1.4c0.2,1.8-0.3,3.6-0.3,5.4c0,2.2,0.3,4.4,0.3,6.6c0,0.9,0,1.2-1.1,0.9c-4-1.1-8.1-2-12.2-3
	c-0.5-0.1-1-0.2-1.5-0.2c-1.5-1.1-2.4-2.8-3.4-4.4c-0.9-2.2-2.4-4-3.8-5.9c-0.5-0.6-0.8-1.2-1.3-1.8c-2-2.8-3.7-5.8-5.4-8.8
	c-4.1-7.4-7.7-15.1-10.5-23.1c-0.9-2.7-1.9-5.3-2.4-8.1c0.1-0.5-0.1-0.9-0.3-1.3c-0.7-2.2-1.2-4.4-1.4-6.7c0.3-0.7,0-1.4-0.2-2.1
	c0-0.2,0-0.3,0-0.5c-0.2-3-0.6-5.9-0.6-8.9c0.4-2.2,1.6-4,2.6-5.9c3-5.5,6.4-10.7,10.2-15.8c0.4-0.5,0.7-1.1,1.3-1.5
	c1.5-1.2,2.4-2.8,3.7-4.2c1.5-1.7,3-3.5,4.6-5.2c0.4-0.4,0.6-0.9,1-1.4c2.5-2.3,4.9-4.9,7.4-7.3c1.4-1.4,2.8-2.9,4.5-4
	c0.5-0.3,0.8-0.8,1.2-1.2c1.4-1.1,3-2.1,4-3.6c0.1-0.1,0.2-0.2,0.3-0.2c0.6,0,0.9-0.4,1.2-0.8c0.6-0.3,1.1-0.7,1.5-1.3
	c0.1-0.1,0.2-0.2,0.3-0.2c0.4-0.1,0.6-0.4,0.9-0.7c0.1-0.1,0.2-0.1,0.3-0.2c0.8-0.3,1.5-1,2.1-1.6c0.8-0.4,1.5-0.9,2.1-1.5
	c0.1-0.1,0.2-0.2,0.3-0.2c0.7-0.3,1.2-0.7,1.7-1.2c0.1-0.1,0.2-0.2,0.3-0.2c0.1-0.1,0.3-0.1,0.4-0.2c1.3-0.6,1.3-0.6,1.4,0.8
	c0,0.1,0,0.3,0.1,0.4c0.9,5.7,3.4,10.5,7.9,14.3c5.5,4.7,12,6.7,19.1,7.6c3.7,0.5,7.5,0.6,11.2,0.5c5.3-0.2,10.6-0.9,15.9-1.8
	c8.3-1.4,16.4-3.9,24.6-6c8.7-2.2,17.5-4.2,26.4-6c7.6-1.5,15.3-2.8,23-3.8c4.3-0.6,8.6-0.9,13-1.3c5.4-0.4,10.9-0.6,16.3-0.5
	c5.2,0.1,10.3,0.6,15.3,1.8c1.4,0.3,1.6-0.3,1.8-1.2c1.1-4.6,1.2-9.2,0-13.8c-2.1-8-6.9-14.2-13.1-19.5c-2.2-1.9-4.6-3.6-7.2-5.4
	c1.1-0.1,1.7,0.4,2.4,0.7c2,0.7,3.9,1.7,5.9,2.4c1.8,0.6,2.7,2.1,3.7,3.4c5.2,6.1,10.2,12.4,14.8,19c5,7.2,9.6,14.6,13.3,22.5
	c2.5,5.3,4.6,10.8,5.7,16.6C1185.8,521.8,1185.8,522.1,1186.1,522.3z"/>
<path class="st6" d="M933.1,766.3c-1-0.5-2.1-0.6-3.1-0.6c-0.3-0.2-0.5-0.5-0.9-0.3c-6.7-1.5-12.4-4.7-17.2-9.7
	c-4.8-5.1-7.8-11.1-8.8-18.1c-1.2-8.5,0.4-16.5,5.2-23.7c4.9-7.3,11.7-12,20.4-14c0.9-0.2,1.7-0.4,2.6-0.6c0.4,1.3-0.1,2.7,0.2,3.8
	c0-0.9-0.1-2.2,0.1-3.4c0-0.2,0.2-0.1,0.4-0.1c0.7,1.9,0.4,3.8,0.3,5.6c-0.2,0.7-0.9,0.8-1.4,1c-4.2,1.2-7.8,3.4-10.9,6.6
	c-6.5,6.7-6.6,17.5-0.2,24.2c5,5.2,11.1,7.6,18.2,7.7c7.2,0.1,13.4-2.2,18.5-7.4c6.9-7.1,6.8-17.9-0.2-24.9c-2.2-2.2-4.7-4-7.6-5.2
	c-0.5-0.2-1.1-0.4-1.5-0.8c-0.2-0.3-0.2-0.5,0-0.8c0.7-1.3,1.4-2.7,2.1-4c0.1-0.2,0.3-0.5,0.7-0.4c0.1,0.7,0.8,0.9,1.3,1.1
	c6.3,3.1,11.1,7.7,14.5,13.8c1.5,2.6,2.5,5.5,3.2,8.4c-0.3,0.5,0.1,0.8,0.3,1.1c0,0.2,0,0.4,0,0.6c0,0.3,0,0.6,0.3,0.9
	c0.1,2.1,0.4,4.2,0.3,6.4c-0.3,8.1-3.1,15.3-8.5,21.4c-4.2,4.7-9.3,7.9-15.3,9.8c-1.9,0.6-3.8,1-5.8,1.2c-0.7,0-1.4-0.2-2,0.3
	C936.5,766.3,934.8,766.3,933.1,766.3z"/>
<path class="st7" d="M938.2,766.3c0.5-1,1.3-0.7,2-0.3c-0.1,0.1-0.2,0.2-0.3,0.3C939.3,766.3,938.8,766.3,938.2,766.3z"/>
<path class="st8" d="M1187,528c-0.5-0.5-0.4-1.1-0.3-1.7c0.1,0,0.2,0,0.3,0C1187,526.9,1187,527.4,1187,528z"/>
<path class="st9" d="M949.8,701.4c-0.9,1.7-1.9,3.3-2.8,5c-0.1,1.2-1,1.8-1.7,2.5c-1.9,2.1-4,4-6.9,4.6c-0.8-0.2-1.7-0.1-2.5,0
	c-0.7-0.1-1.2-0.5-1.7-1c-1.7-2-2.4-4.3-2.2-6.9c0-2-0.1-4-0.1-5.9c-0.1-0.1-0.1-0.1-0.1-0.2c0-0.1,0-0.1,0.1-0.1
	c1.8-11.5,0.4-22.9-1.4-34.2c-3.6-22-9.3-43.4-16.8-64.4c-4.6-12.8-9.9-25.4-14.3-38.3c-2.7-8-5.3-16-6.8-24.3
	c-0.2-1.2-0.1-2.2,0.3-3.3c1.2-3.2,2.3-6.5,3.8-9.6c2.6-6,5.2-12,8.2-17.8c4.3-8.5,8.9-16.8,14-24.9c3.9-6.3,8-12.4,12.5-18.3
	c0.7-0.9,1.5-1.8,2.2-2.8c7.8-9.7,15.7-19.2,24.9-27.6c2.5-2.3,5.1-4.7,7.8-6.8c0.6,0.7,0.1,1.4-0.1,2c-5,14.9-9.9,29.8-14.9,44.7
	c-0.3,0.8-0.6,1.7-0.8,2.5c0.4,0.2,0.6,0,0.8-0.1c3.7-2,7.6-3.7,11.4-5.5c1.9-0.9,3.6-2.1,4.8-3.8c0.4-0.5,0.8-0.9,1.2-1.4
	c0.2-0.3,0.5-0.7,0.9-0.4c0.4,0.3,0.1,0.7-0.1,1c-0.2,0.5-0.6,0.9-0.8,1.5c0.7-0.2,1.3-0.5,1.9-0.8c6.1-3.1,12.3-5.9,18.4-9
	c0.6-0.3,1.4-1,1.8-0.4c0.5,0.7-0.5,1-1,1.5c-5.8,5.1-11.3,10.5-16.7,16.1c-6.3,6.7-12.3,13.7-17.4,21.4c-3.4,5.1-6.3,10.5-7.9,16.5
	c-1,3.8-1.4,7.6-0.3,11.4c0.1,0.4,0.2,0.7,0.1,1.1c-0.1,0.3-0.3,0.7-0.6,0.9c-5.5,7.1-10.4,14.6-14.1,22.9c0,3.3,0.2,6.6,0.3,9.9
	c0.3,1.8,0.4,3.6,0.6,5.3c1.5,8.9,4.5,17.3,7.9,25.6c2,4.9,4.9,9,8,13.2c1.4,1.9,2.6,3.9,4,5.7c0.4,0.7,0.9,1.4,1.5,2
	c1.1,1.9,2.6,3.5,3.6,5.5c1.1,1.5,2.1,3,3.2,4.6c-0.2,8.1-0.6,16.3-1.2,24.4c-1.3,16-3.3,31.9-7.7,47.4
	C952.1,695.4,950.9,698.4,949.8,701.4z"/>
<path class="st10" d="M976.6,610.8c-0.5-1-0.4-1.3,0.3-1.4C976.8,609.9,976.7,610.4,976.6,610.8z"/>
<path class="st11" d="M1105,511.5c0.2-0.8,0.7-0.7,1.1-0.3C1105.8,511.6,1105.4,511.5,1105,511.5z"/>
<path class="st12" d="M1097,512.6c0.3-0.5,0.6-0.8,1.1-0.3C1097.8,512.5,1097.4,512.7,1097,512.6z"/>
<path class="st13" d="M977.7,601.7c-0.5-0.5-0.3-0.7,0.3-0.9C978,601.2,978.1,601.5,977.7,601.7z"/>
<path class="st14" d="M977.2,605.4c-0.3-0.2-0.4-0.5-0.2-0.9c0.1-0.2,0.3-0.1,0.5,0C977.4,604.9,977.3,605.1,977.2,605.4z"/>
<path class="st15" d="M969.5,727.3c-0.6-0.1-0.7-0.4-0.3-0.9C969.5,726.6,969.5,727,969.5,727.3z"/>
<path class="st16" d="M1136,511.2c0.5-0.5,0.7-0.3,0.9,0.3C1136.6,511.4,1136.3,511.3,1136,511.2z"/>
<path class="st17" d="M1099,512.3c0.3-0.4,0.6-0.8,1.1-0.3C1099.8,512.1,1099.4,512.2,1099,512.3z"/>
<path class="st18" d="M1093.9,513.2c0.2-0.3,0.4-0.8,0.9-0.3C1094.5,513.2,1094.2,513.2,1093.9,513.2z"/>
<path class="st16" d="M1186.4,536c-0.5-0.5-0.3-0.7,0.3-0.9C1186.6,535.4,1186.5,535.7,1186.4,536z"/>
<path class="st19" d="M969.2,725.9c-0.5-0.3-0.8-0.6-0.3-1.1C969,725.1,969.1,725.5,969.2,725.9z"/>
<path class="st20" d="M947.3,525.2c-0.3-1.7-0.8-3.3-0.8-5c-0.2-4.3,0.9-8.4,2.5-12.4c3-7.1,7.2-13.4,11.9-19.4
	c6.5-8.4,13.8-16,21.4-23.3c2.6-2.6,5.3-5.1,8.2-7.4c0.1-0.1,0.1-0.2,0.4-0.6c-7.8,3.8-15.3,7.5-22.9,11.2c0.2-1.3,1.1-2.1,1.3-3.2
	c-0.4,0.4-0.8,0.8-1.1,1.3c-2.5,3.8-6.8,5-10.5,7c-2.2,1.2-4.4,2.2-6.6,3.2c-0.4,0.2-0.8,0.4-1.3,0.6c-0.1-0.6,0.1-1,0.3-1.5
	c5.2-15.7,10.4-31.3,15.7-47c0.2-0.5,0.5-1.1,0.4-1.6c14.7-12.3,31.3-20.4,50.2-23.6c17.4-2.9,34.4-0.9,51.3,4.1
	c9.8,2.9,18.7,7.8,27.4,13c10.6,6.3,21.1,12.9,30.6,20.9c3.8,3.2,7.4,6.5,10.2,10.7c0.7,1,1.4,2.1,1.7,3.6c-3-1.1-6-1.9-9-2.4
	c-7.5-1.3-15.1-1.5-22.7-1.2c-12.3,0.5-24.4,2.4-36.4,4.9c-0.6,0.1-1.1,0.3-1.7,0.4c-0.8,0.9-2,0.7-3,1c-0.7,0.2-1.5,0.3-2.2,0.5
	c-0.1,0.1-0.3,0.1-0.4,0.1c-0.7,0.1-1.3,0.3-2,0.5c-0.2,0.1-0.4,0.1-0.6,0.2c-0.6,0.1-1.2,0.3-1.8,0.5c-2.8,0.7-5.6,1.5-8.4,2.2
	c-2.4,0.6-4.7,1.4-7.1,2.1c-0.2,0.1-0.4,0.1-0.6,0.2c-1.2,0.2-2.3,0.7-3.5,1.1c-0.1,0-0.2,0.1-0.4,0.1c-0.6,0.1-1.3,0.3-1.9,0.5
	c-0.6,0.2-1.2,0.4-1.8,0.6c-0.2,0.1-0.5,0.2-0.7,0.3c-0.6,0.2-1.3,0.3-1.9,0.5c-0.4,0.1-0.7,0.3-1.1,0.4c-0.5,0.1-0.9,0.3-1.3,0.5
	c-1.4,0.4-2.7,0.9-4.1,1.4c-0.8,0.2-1.6,0.5-2.3,0.8c-0.2,0.1-0.4,0.1-0.6,0.2c-4.4,1.4-8.6,3-12.7,5.2c-1.3,0.6-2.5,1.2-3.7,1.8
	c-4.9,2.5-9.6,5.5-14.3,8.4c-1.2,0.7-2.3,1.5-3.6,2c-0.6,0.4-1.3,0.8-1.9,1.3c-0.5,0.6-1,1.1-1.7,1.3l0,0c-0.5,0.7-1.2,1.1-2,1.4
	l0,0c-0.6,0.9-1.6,1.3-2.4,1.8c-0.6,0.6-1.3,1.3-2.1,1.6l0,0c-0.4,0.3-0.6,0.8-1.1,0.8l0,0c-0.5,0.4-0.8,1.1-1.6,1.3
	c-0.5,0.3-0.7,1-1.4,1c-0.1,0-0.1,0-0.1,0.1c-1.2,1.5-2.8,2.4-4.2,3.7c-1.6,1.3-2.9,3-4.7,4.2c-0.4,0.3-0.7,0.6-1,1
	c-2.3,2.4-4.6,4.8-7.1,7.1c-2.7,3.4-5.8,6.5-8.4,10C947.7,525.1,947.5,525.2,947.3,525.2z"/>
<path class="st6" d="M987.6,488.4c5.7-4,11.6-7.5,17.7-10.7c1.5-0.3,2.8-1.1,4-1.9c3.6-1.7,7.3-3.2,11.1-4.5c0.5-0.2,1-0.4,1.4-0.7
	c0.1,0,0.3,0,0.4,0c0.7-0.2,1.4-0.5,2.1-0.7c1.6-0.5,3.2-1,4.8-1.6c0.5,0.4,0.5-0.4,0.9-0.4c0.6,0.1,1.1-0.2,1.5-0.5
	c0.6,0,1.2,0,1.7-0.5c0.2-0.1,0.4-0.2,0.5-0.2c0.9,0.2,1.5-0.3,2.3-0.6c0.6-0.1,1.2-0.1,1.7-0.6l0,0c1.3-0.1,2.6-0.5,3.7-1.2
	c0.1,0,0.2-0.1,0.3-0.1c1.4,0,2.6-0.6,4-0.9c0.4-0.1,1-0.6,1.2,0.3c-11.5,3.4-22.6,7.7-33.6,12.5c-8.2,3.6-16.2,7.7-24.1,11.9
	C988.7,488.1,988.2,488.4,987.6,488.4z"/>
<path class="st21" d="M933.3,461.3c-0.6,1.6-1.8,2.7-2.8,4c-6.1,8.4-11.6,17.1-16.8,26.1c-3.8,6.6-7.4,13.3-10.7,20.2
	c-1.9,3.9-3.8,7.7-5.4,11.7c-0.2,0.6-0.4,1.4-1.1,1.8c0.9-2.9,2.2-5.6,3.4-8.4c8.3-18.7,18.2-36.4,30.8-52.5
	C931.6,463.2,932.3,462.1,933.3,461.3z"/>
<path class="st22" d="M1059.4,459.2c0.2,0,0.3-0.1,0.5-0.1c0.7-0.2,1.4-0.2,2.1-0.5c0.1,0,0.2,0,0.3,0c0.5,0.2,1.1-0.6,1.4,0.3
	c-3.6,0.9-7.2,1.9-10.8,2.8c-1.8,0.5-3.6,1-5.5,1.4c-0.5,0-0.4-0.3-0.1-0.4c0.5-0.4,1.3-0.3,1.8-0.7c2.8-0.9,5.6-1.7,8.5-2.3
	C1058.2,459.5,1058.9,459.6,1059.4,459.2z"/>
<path class="st23" d="M1083.1,455.1c1.7-0.7,3.5-0.6,5.2-0.8c8.8-1,17.6-1.4,26.4-1.2c0.1,0.1,0.1,0.1,0.1,0.2
	c0,0.1-0.1,0.1-0.1,0.1c-2.2,0-4.5,0-6.7,0c-5.9,0-11.7,0.4-17.5,1.1c-2.5,0.3-5,0.6-7.4,0.9C1083,455.3,1082.9,455.3,1083.1,455.1
	C1083,455.1,1083,455.1,1083.1,455.1z"/>
<path class="st24" d="M1083.1,455.1c0,0.1,0,0.2,0,0.3c-3.8,0.4-7.5,1.1-11.3,1.8c-2.1,0.4-4.2,0.9-6.4,1.3
	c-0.2-0.1-0.4-0.2-0.3-0.5c0.9-0.4,1.9-0.4,2.9-0.6c3.1-0.5,6.3-1.1,9.4-1.6C1079.3,455.6,1081.1,455,1083.1,455.1z"/>
<path class="st25" d="M1114.7,453.4c0-0.1,0-0.2,0-0.3c4.3-0.2,8.5,0.4,12.8,0.8C1123.2,454,1118.9,453.3,1114.7,453.4z"/>
<path class="st26" d="M1049.1,461.9c0.3,0.8-0.5,0.3-0.7,0.5c-0.3,0.2-0.7,0.3-1,0.4c0,0,0,0.1,0,0.1c0,0,0.1,0.1,0.1,0.1
	c-0.1,0.2-0.4,0.3-0.6,0.3c-1-0.6-1.8,0.3-2.7,0.4c-0.6,0.1-1.4,0.2-2,0.6c-0.2,0.2-0.4-0.2-0.4-0.4
	C1044.2,463.2,1046.6,462.4,1049.1,461.9z"/>
<path class="st27" d="M1068,457.4c-0.9,0.6-2,0.3-2.8,0.8c-0.3,0.3-0.8,0.3-1.1,0.6c-0.1,0-0.2,0-0.3,0c-0.4-0.7-1.1,0.3-1.4-0.3
	c1.8-0.7,3.6-0.9,5.4-1.3C1067.8,457.3,1067.9,457.3,1068,457.4z"/>
<path class="st28" d="M984,490.9c0.5-0.6,1.1-0.9,1.7-1.3c0.3,0.7,0.3,1.4,0.3,2.2C985.8,491.2,985.3,491,984,490.9z"/>
<path class="st29" d="M931.9,699.4c0,0.1,0,0.2,0,0.3c-0.5,1.3,0,2.6-0.5,3.9c0-1.4,0-2.8,0-4.2
	C931.5,699.4,931.7,699.4,931.9,699.4z"/>
<path class="st22" d="M1064,458.8c0.2-0.5,0.7-0.6,1.1-0.6c0.1,0.1,0.2,0.2,0.3,0.3C1064.9,458.6,1064.5,458.7,1064,458.8z"/>
<path class="st30" d="M1186.1,522.3c-0.6-0.1-0.7-0.4-0.3-0.9C1186.1,521.7,1186.1,522,1186.1,522.3z"/>
<path class="st31" d="M929.1,765.4c0.5-0.4,0.7-0.3,0.9,0.3C929.6,765.6,929.4,765.5,929.1,765.4z"/>
<path class="st32" d="M953.6,608.8c-7.9-9.6-13.7-20.3-17.2-32.3c-1.5-5.2-2.9-10.5-3.4-15.9c-0.1-0.5,0-1-0.1-1.6
	c-0.1-0.3-0.1-0.6,0-0.9c0.1-0.3,0.3-0.5,0.4,0c0,0.1,0,0.2,0,0.3c0.1,0.6,0.5,1.1,0.3,1.7c0.5,2.4,1,4.7,1.4,7.1
	c0.2,0.3,0.4,0.5,0.3,0.9c2.8,10.2,6.9,19.8,11.9,29.1c2.1,3.8,4.1,7.5,6.6,11.1C954,608.6,954.1,608.8,953.6,608.8z"/>
<path class="st33" d="M956.1,514.9c4.1-4.3,8.2-8.5,12.8-12.2c0.1-0.1,0.2-0.1,0.3,0c0,0.5-0.3,0.8-0.7,1
	c-4.2,3.3-7.7,7.3-11.5,10.9c-0.3,0.3-0.5,0.5-0.9,0.6C956,515.1,956,515,956.1,514.9z"/>
<path class="st34" d="M956.1,514.9c0,0.1,0,0.2,0,0.3c-0.1,0.6-0.5,1.1-0.9,1.6c-2.8,2.8-5.2,5.9-7.7,9c-0.2,0.2-0.3,0.6-0.6,0.2
	c0.1-0.2,0.2-0.5,0.3-0.7C950.1,521.6,953,518.2,956.1,514.9z"/>
<path class="st35" d="M933.3,558.2c-0.6,0.1-0.1,0.6-0.3,0.9c-0.4-3.4-0.3-6.8-0.2-10.3c0.1,0.2,0.2,0.3,0.2,0.5
	c0,2.6,0.1,5.2,0.6,7.8C933.7,557.5,933.7,557.9,933.3,558.2z"/>
<path class="st36" d="M958.7,616c-1.3-1.8-2.5-3.5-3.8-5.3c-0.1-0.2-0.2-0.4,0-0.7c1.6,1.7,2.6,3.7,3.9,5.6
	C958.9,615.7,958.8,615.8,958.7,616z"/>
<path class="st37" d="M969.2,502.7c-0.1,0-0.2,0-0.3,0c1.3-1.3,2.8-2.5,4.3-3.6C972.5,500.9,970.7,501.7,969.2,502.7z"/>
<path class="st38" d="M979.5,494.1c0.8-0.7,1.6-1.3,2.5-1.8c-0.3,1.2-1.2,1.6-2.2,1.8C979.7,494.2,979.6,494.2,979.5,494.1z"/>
<path class="st39" d="M979.5,494.1c0.1,0,0.2,0,0.2,0c-0.5,0.9-1.1,1.7-2.3,1.6C978,495.1,978.7,494.6,979.5,494.1z"/>
<path class="st28" d="M982,492.4c0.6-0.6,1.2-1.1,2-1.4C983.7,491.9,983.1,492.5,982,492.4z"/>
<path class="st40" d="M974.6,497.9c0.5-0.5,1-1,1.7-1.2c-0.3,0.8-0.6,1.5-1.7,1.5C974.5,498.1,974.5,498,974.6,497.9
	C974.6,497.9,974.6,497.9,974.6,497.9z"/>
<path class="st41" d="M955,610c0,0.2,0,0.4,0,0.7c-0.6-0.5-1-1.1-1.3-1.8c0.1-0.2,0.1-0.4,0.2-0.5C954.2,608.9,954.6,609.4,955,610z
	"/>
<path class="st42" d="M974.6,497.9c0,0.1,0,0.2,0,0.2c-0.2,0.7-0.4,1.2-1.3,0.8C973.8,498.6,974.2,498.2,974.6,497.9z"/>
<path class="st43" d="M976.3,496.6c0.3-0.4,0.6-0.7,1.1-0.8C977.1,496.2,977.3,497.2,976.3,496.6z"/>
<path class="st35" d="M933.6,560.2c-0.1-0.6-0.4-1.1-0.3-1.7C933.8,559,934.2,559.5,933.6,560.2z"/>
<path class="st19" d="M935.3,568.1c-0.1-0.3-0.2-0.6-0.3-0.9C935.7,567.4,935.8,567.7,935.3,568.1z"/>
<path class="st5" d="M932,705.6c0.4,1.4,0.4,3,1.1,4.4c0.6,1.4,1.3,2.7,2.9,3.3c0.8,0.1,1.7,0,2.5,0c3-0.7,5-2.9,7-5
	c0.5-0.6,1-1.2,1.5-1.8c6.7,1.9,13.4,8.3,14.5,15.8c1.1,7.3-1.7,12.9-7.1,17.5c-8.9,7.5-23.6,7.4-32.7-0.1
	c-6.8-5.6-9.2-14.2-5.4-22.2c2.2-4.6,5.9-7.8,10.5-10C928.4,706.6,930.2,706,932,705.6z"/>
<path class="st44" d="M938.5,713.3c-0.8,0.4-1.7,0.4-2.5,0C936.8,712.9,937.6,712.9,938.5,713.3z"/>
<path class="st45" d="M1021.9,470.5c0,0.4-0.3,0.6-0.6,0.7c-4,1.6-8,3.1-11.9,4.7c-0.1,0.1-0.3,0.1-0.4,0
	C1013,473.5,1017.4,471.9,1021.9,470.5z"/>
<path class="st46" d="M1029.3,468.2c-0.8,0.8-1.9,0.9-2.8,1.2c-0.6,0.2-1.1,0.5-1.7,0.5c-0.2-0.1-0.2-0.2,0-0.4
	c1.3-0.6,2.7-1.1,4.2-1.4C1029,468.1,1029.2,468.1,1029.3,468.2z"/>
<path class="st26" d="M1009,475.9c0.1,0,0.3,0,0.4,0c-1.1,1.1-2.4,1.8-4,1.7C1006.6,477.1,1007.8,476.5,1009,475.9z"/>
<path class="st26" d="M1041.5,464.1c-0.5,0.8-2.6,1.5-3.7,1.2C1038.9,464.7,1040.2,464.4,1041.5,464.1z"/>
<path class="st47" d="M1036.1,465.9c-0.8,0.8-1.8,1-2.3,0.6c0.6-0.3,1.2-0.6,1.9-0.6C1035.9,465.8,1036,465.8,1036.1,465.9z"/>
<path class="st48" d="M1036.1,465.9c-0.1,0-0.2,0-0.3,0c0.6-0.4,1.3-0.6,2-0.6C1037.4,466,1036.8,466.2,1036.1,465.9z"/>
<path class="st49" d="M1033.3,466.7c-0.3,0.9-1,0.8-1.7,0.6c-0.1,0.1-0.2,0.1-0.3,0C1031.9,467,1032.5,466.8,1033.3,466.7z"/>
<path class="st50" d="M1024.7,469.6c0,0.1,0,0.2,0,0.4c-0.8,0.1-1.5,0.8-2.4,0.5C1023,469.8,1023.9,469.8,1024.7,469.6z"/>
<path class="st51" d="M1031.2,467.3c0.1,0,0.2,0,0.3,0c-0.3,0.6-0.7,0.9-1.4,0.6c-0.1-0.1-0.1-0.1-0.1-0.2c0-0.1,0.1-0.1,0.1-0.1
	C1030.5,467.6,1030.9,467.5,1031.2,467.3z"/>
<path class="st52" d="M1062,458.6c-0.6,0.6-1.3,0.6-2.1,0.5C1060.6,458.7,1061.3,458.6,1062,458.6z"/>
<path class="st53" d="M1059.4,459.2c-0.4,0.7-1.2,0.5-1.8,0.5C1058.2,459.3,1058.8,459.2,1059.4,459.2z"/>
<path class="st54" d="M1030.1,467.7c0,0.1,0,0.2,0,0.2c-0.3,0.2-0.4,0.6-0.8,0.3c-0.1,0-0.3,0-0.4-0.1
	C1029.2,467.9,1029.7,467.7,1030.1,467.7z"/>
<line class="st5" x1="1126.5" y1="453.9" x2="1139.9" y2="456.9"/>
</svg>
